<svg xmlns="http://www.w3.org/2000/svg" viewBox="0 0 1600 1064">
  <path fill="#FBFDFD" d="M0 0h1600v1064H0V0z"/>
  <path fill="#1A321A" d="m860 180 1 1c3.79.449 7.58.822 11.4 1.16.798.0793 1.6.159 2.42.24.732.067 1.46.134 2.22.203 1.98.395 1.98.395 4.98 2.39 2.48.524 4.93.974 7.44 1.38 7.13 1.23 13.7 3.19 20.6 5.62 1.29.389 2.58.766 3.88 1.12 3.08.862 6.1 1.84 9.12 2.88v2l1.69.0781c5.17.384 8.92 1.44 13.4 3.93 2.52 1.34 5.14 2.17 7.86 2.99v2c.866.103 1.73.206 2.62.312 3.56.725 6.17 2.02 9.38 3.69.763.186 1.53.371 2.31.562l1.69.438 1 2c1.71.885 1.71.885 3.81 1.69 10.4 4.47 19.9 11 29.4 17.1 3.16 2.05 6.34 4.09 9.52 6.13 3.12 2 6.23 4.01 9.31 6.06v2l1.69.812c2.52 1.3 4.95 2.61 7.31 4.19v2l1.81.875c2.19 1.12 2.19 1.12 5.19 3.12v2l2.25.75c2.98 1.35 4.65 2.76 6.75 5.25v2c.742.227 1.48.454 2.25.688 3.35 1.6 4.47 3.39 6.75 6.31 1.98 1.83 4.02 3.57 6.06 5.32 5.78 5 11.1 10.7 15.9 16.7v2h2c1.44 1.39 1.44 1.39 3 3.25l1.56 1.83c1.42 1.9 2.38 3.8 3.44 5.92l2.12 2.12c1.88 1.88 1.88 1.88 1.88 3.88h2c1.02 1.66 2.02 3.32 3 5l2 1c.92 1.6 1.83 3.21 2.72 4.83 2.03 3.44 4.43 6.62 6.79 9.84 1.4 2.19 2.05 3.8 2.49 6.33h2c.315.568.629 1.14.953 1.72.642 1.16.642 1.16 1.3 2.34.452.819.905 1.64 1.37 2.48 1.2 2.13 2.44 4.23 3.69 6.33 1.69 3.12 1.69 3.12 1.69 6.12h2c7.28 13.3 7.28 13.3 10 20 2.11 4.89 4.34 9.72 6.63 14.5 2.87 6.05 5.47 12 7.37 18.5l2 6c.226.642.451 1.28.684 1.95 1.86 5.39 3.29 10.8 4.57 16.4.639 2.66.639 2.66 1.81 4.79 1.05 2.14 1.23 3.72 1.38 6.09.378 4.13 1.42 7.62 2.8 11.5 4.14 12.6 5 26.6 6.32 39.7.194 1.91.194 1.91.392 3.86 3.43 34.3 3.43 34.3 1.05 49.8l-1 1c-.134 1.49-.204 3-.246 4.5-.0315.943-.063 1.89-.0955 2.86-.0475 1.53-.0475 1.53-.0959 3.08-.285 7.59-.679 15.1-1.5 22.7-.0747.726-.149 1.45-.226 2.2-.331 2.86-.733 5.42-1.81 8.09-1.52 3.81-1.95 7.72-2.53 11.8-.258 1.7-.517 3.4-.777 5.1-.124.812-.247 1.62-.375 2.46-.43 2.78-.896 5.55-1.41 8.31-.135.733-.271 1.47-.41 2.22-.527 1.71-.527 1.71-2.53 3.71-.697 2.48-1.31 4.93-1.88 7.44-1.36 5.74-2.93 11.2-5.05 16.8-1.76 4.6-3.32 9.28-4.93 13.9-1.15 2.87-1.15 2.87-3.15 4.87-.539 1.75-1.01 3.53-1.44 5.31-1.04 4.04-2.18 7.22-4.56 10.7l-1 3-2 1c-.99 2.14-.99 2.14-1.88 4.69-1.62 4.22-3.58 7.57-6.12 11.3-2.07 3.96-4.05 7.98-6 12h-2c-.248.887-.495 1.77-.75 2.69-1.32 3.5-2.9 5.43-5.25 8.31-2.53 4.23-4.82 8.58-7 13h-3c-.36 1.31-.36 1.31-.727 2.65-1.4 3.67-3.1 5.94-5.65 8.91-1.16 1.36-1.16 1.36-2.34 2.75-.755.886-1.51 1.77-2.29 2.68-1.07 1.41-1.07 1.41-2.16 2.84-.606.713-1.21 1.43-1.84 2.16h-2l-.25 1.75c-.968 2.9-2.44 4.29-4.75 6.25h-2l-.688 2.19c-1.58 3.39-3.51 5.35-6.31 7.81l-3 1c-.691 1.32-1.36 2.66-2 4-1.48 1.42-1.48 1.42-3.19 2.75-3.49 2.85-6.3 6.02-9.14 9.52-1.78 1.85-3.37 2.66-5.68 3.73l-4 4h-2c-.227.578-.454 1.16-.688 1.75-2.42 4.16-6.13 6.16-10.3 8.25l-1.44 1.44c-1.56 1.56-1.56 1.56-4.12 3.06-2.68 1.42-2.68 1.42-4.44 4.5-5.96 3.75-5.96 3.75-9.38 4.56l-1.62.438-1 3c-3.06 1.19-3.06 1.19-6 2v2l-1.75.25c-2.4.615-2.4.615-4.19 2.69-3.16 3.16-6.78 4.11-11.1 5.06v2c-.957.273-.957.273-1.93.551-.826.251-1.65.503-2.5.762-1.24.365-1.24.365-2.5.738-1.02.47-1.02.47-2.07.949l-1 3h-5l-1 3c-2.03.879-2.03.879-4.5 1.56-2.41.641-2.41.641-4.5 1.44l-1 2c-2.5.633-2.5.633-5.56 1.12-1.52.251-1.52.251-3.07.508-.782.121-1.56.242-2.37.367v2c-1.05.29-1.05.29-2.12.586-.91.26-1.82.521-2.76.789-1.36.383-1.36.383-2.74.773-2.53.712-2.53.712-4.38 2.85-2.82.633-2.82.633-6.12 1.12-1.64.251-1.64.251-3.32.508-.843.121-1.69.242-2.55.367v2c-10.4 2.98-20.6 5.14-31.2 6.69-.723.106-1.45.213-2.19.323-16.3 2.39-32 3.16-48.5 2.68-1.84-.0515-1.84-.0515-3.72-.104-1.15-.0443-2.3-.0886-3.49-.134-1.55-.0567-1.55-.0567-3.12-.115-2.74-.337-4.31-1.07-6.72-2.33-2.26-.418-2.26-.418-4.66-.562-.876-.0748-1.75-.15-2.65-.227-1.84-.141-3.67-.282-5.51-.422-.875-.0748-1.75-.15-2.65-.227-.797-.0606-1.59-.121-2.41-.184-2.11-.379-2.11-.379-5.11-2.38-1.86-.353-3.74-.637-5.62-.875-4.85-.746-8.79-1.92-13.2-4.07-2.26-1.09-4.54-1.98-6.88-2.87-8.11-3.21-16.4-6.9-23.3-12.2l-3-1v-2h-3c-1.38-1.29-2.7-2.63-4-4-2.36-1.85-4.76-3.63-7.17-5.41-.603-.523-1.21-1.05-1.83-1.59v-2h-2c-4.77-4.3-4.77-4.3-6-8l-2-1c-2-1-2-1-3-4h-2c-1.33-1.5-1.33-1.5-2.81-3.56-.525-.726-1.05-1.45-1.59-2.2-.527-.739-1.05-1.48-1.6-2.24-.496-.666-.993-1.33-1.5-2.02-3.5-4.73-3.5-4.73-3.5-6.98h-2c-.254-.531-.508-1.06-.77-1.61-1.83-3.76-3.7-7.06-6.23-10.4-.669-1.67-1.33-3.33-2-5-1.3-2.55-2.63-5.07-3.98-7.6-1.02-2.4-1.02-2.4-1.02-6.4h-2c-.182-.652-.364-1.3-.551-1.98-1.11-3.87-2.18-7.49-4.01-11.1-1.58-3.24-2.2-6.21-2.91-9.71-.772-3.25-2.17-6.17-3.53-9.22-2.28-6.3-4.12-12.7-5.94-19.2-.527-1.86-1.05-3.72-1.58-5.59-.253-.897-.507-1.79-.768-2.72-.609-2.14-1.23-4.28-1.85-6.42-1.39-4.78-2.75-9.55-3.93-14.4-.267-1.09-.267-1.09-.539-2.21-.341-1.41-.676-2.83-1-4.25-.778-3.25-1.52-5.42-3.39-8.24-.555-1.92-1.05-3.86-1.5-5.81-.722-3.1-1.47-6.1-2.48-9.12-1.13-3.41-1.95-6.82-2.77-10.3-1.65-6.86-3.79-13.5-6.1-20.1-2.02-5.93-3.39-11.8-4.51-18-.434-2.76-.434-2.76-2.64-4.62-.547-1.78-.547-1.78-.965-3.92-.16-.779-.321-1.56-.486-2.36-.321-1.63-.641-3.26-.961-4.89-.972-4.71-2.23-8.58-4.59-12.8-4.13-9.78-1.7-19.4 2-29 1.58-1.78 1.58-1.78 3-3 .309-.701.619-1.4.938-2.12.351-.619.701-1.24 1.06-1.88 1.33-.333 2.67-.667 4-1 .437-.905.437-.905.883-1.83 1.31-2.55 2.7-3.71 4.99-5.42.678-.521 1.36-1.04 2.05-1.58 2.07-1.17 2.07-1.17 6.07-1.17l1-3c2.33-.689 4.66-1.35 7-2l1.47-1.47c1.82-1.82 3.21-2.29 5.66-3.03 1.19-.367 1.19-.367 2.41-.742.815-.25 1.63-.5 2.47-.758l4.62-1.62c3.76-1.27 7.44-1.81 11.4-2.38l2-2c1.98-.714 3.98-1.39 6-2-.217-.615-.433-1.23-.656-1.86-.418-1.21-.418-1.21-.844-2.45-.278-.801-.557-1.6-.844-2.43-.656-2.26-.656-2.26-.656-5.26h-2l-.812-2.72c-2.91-9.27-6.65-17.7-11.2-26.3-1.7-3.25-3.37-6.52-5.04-9.79-.578-1.12-1.16-2.24-1.75-3.39-1.25-2.79-1.25-2.79-1.25-5.79h-2l-1.69-3.56c-1.77-3.57-3.84-6.66-6.22-9.84-1.41-2.06-2.19-4.28-3.09-6.6l-1.38-1.38c-1.99-1.99-3.16-4.27-4.52-6.72-2.14-3.69-4.53-7.33-7.56-10.4-1.75-1.75-3.23-3.59-4.73-5.55-.53-.681-1.06-1.36-1.61-2.06-1.21-1.94-1.21-1.94-1.21-4.94l-1.69-.625c-2.54-1.51-4.08-3.31-5.87-5.64-1.53-1.89-1.53-1.89-3.8-4.09-2.63-2.63-5.07-5.36-7.52-8.14-3.78-4.2-7.46-7.36-12.1-10.5v-2h-3v-2h-2c-.593-.596-1.19-1.19-1.8-1.8-3.01-3-6.46-4.77-10.2-6.83-1.01-.677-1.01-.677-2.05-1.37v-2l-2.25-.75c-2.98-1.35-4.65-2.76-6.75-5.25v-2h-2c-1.17-6.04-1.16-9.45 2-15 2.9-2.9 6.12-3.82 10-5l2-1c4.04-.248 8.08-.19 12.1-.188 1.17.0000806 2.34.000161 3.55.000244 24.3.159 24.3.159 27.3 3.19 2.04.351 4.08.656 6.12.938 4.78.708 9.28 1.56 13.9 3.06 1.04.323 1.04.323 2.1.652 7.63 2.42 14.8 5.71 21.9 9.34 1.4.71 2.82 1.4 4.23 2.08.724.348 1.45.696 2.2 1.05.659.312 1.32.624 2 .945 1.57.93 1.57.93 2.57 2.93 1.65 1.02 3.32 2.02 5 3 13.8 9.32 26.3 20.1 37 33l2.31 2.25c1.69 1.75 1.69 1.75 1.69 3.75l1.88.75c2.53 1.49 2.93 2.63 4.12 5.25l1.38 1.31c1.99 2.07 3.2 4.41 4.57 6.91 1.14 2.03 1.14 2.03 3.3 4.59 1.75 2.19 1.75 2.19 1.75 4.19l3 1c-1.6-7.67-3.28-15.3-5.06-22.9-.243-1.04-.243-1.04-.491-2.11-1.03-4.36-2.21-8.65-3.45-13-.655-2.6-1.3-5.21-1.94-7.81-1.34-5.45-2.79-10.8-4.55-16.2-.516-2.02-.516-2.02-.516-6.02h-2c-.291-.895-.583-1.79-.883-2.71-3.66-10.8-8.42-19.5-15.7-28.4-2.82-3.8-2.65-7.33-2.42-11.9 1-3.44 1-3.44 2-6h3c.34-.959.34-.959.688-1.94 1.31-2.06 1.31-2.06 3.49-2.74 3.29-.374 6.05-.0389 9.32.492 1.1.171 2.21.343 3.34.52 2.94.621 5.41 1.48 8.16 2.67 2.66 1.01 5.33 2 8 3v2l2.19.812c4.7 1.98 8.86 4.82 13.1 7.69l2.64 1.78c2.11 1.72 2.11 1.72 3.11 4.72 3.01 1.23 3.01 1.23 6 2v2h2v2l3 1c1.25 1.45 2.5 2.9 3.69 4.39 3.7 4.54 8.15 8.23 12.6 12 1.67 1.65 1.67 1.65 2.67 4.65l2.25 2.25c5.12 5.12 8.44 9.24 8.89 16.7-.205 3.02-1.27 4.74-3.14 7.07l-1.38 2.25c-2.15 2.32-3.51 2.38-6.62 2.75-2.89-.34-2.89-.34-5.81-.938-1.46-.292-1.46-.292-2.96-.59-.736-.156-1.47-.312-2.23-.473v-2l-4-2v-2c-.639-.248-1.28-.495-1.94-.75-2.06-1.25-2.06-1.25-2.81-3.38l-.25-1.88h-2l-1-3-2.19-1.25c-3.17-1.98-5.04-4.17-7.39-7.04-1.51-1.88-1.51-1.88-3.8-4.02-1.62-1.69-1.62-1.69-1.62-3.69h-5c.454.852.908 1.7 1.38 2.58 1.6 3.36 2.65 6.53 3.62 10.1.336 1.22.673 2.44 1.02 3.7.324 1.19.647 2.38.98 3.61.293 1.03.585 2.05.887 3.11 1.12 3.96 2.18 7.8 2.68 11.9.244 3.17.244 3.17 2.44 6 .573 2.73 1.07 5.43 1.5 8.19.8 4.98 1.72 9.85 2.98 14.7.978 3.94 1.73 7.92 2.52 11.9.175.883.35 1.77.531 2.68 1.06 5.36 2.09 10.7 3.04 16.1.296 1.67.604 3.33.922 4.99 1.24 6.56 2.15 13.1 2.95 19.8.5 3.27 1.25 6.37 2.09 9.56 1.02 4.57 1.28 9.27 1.68 13.9.277 4.56.277 4.56 2.79 8.18.098-1.09.196-2.18.297-3.3.8-8.28 1.89-16.4 3.7-24.5.249-1.12.249-1.12.503-2.26.679-2.92 1.41-5.71 2.53-8.49 1.7-4.28 2.32-8.84 3.19-13.4.781-3.08.781-3.08 2.78-5.08l-1-2c.68-1.67 1.37-3.33 2.11-4.96 1.98-4.55 3.38-9.33 4.79-14.1 3.04-10.2 6.68-19.8 12-29 1.37-2.55 2.19-5.22 3.06-7.97l2-2c.926-1.82 1.85-3.64 2.74-5.47 5.73-11.5 11.9-22.7 20.3-32.5l1.69-2.88 1.31-2.12h2l.312-1.94.688-2.06 3-1v-3h2v-2h2c.268-.639.536-1.28.812-1.94 1.19-2.06 1.19-2.06 4.19-3.06v-3c1.57-1.65 1.57-1.65 3.69-3.38 2.52-2.1 4.93-4.18 7.19-6.56 2.12-2.06 2.12-2.06 4.12-2.06l1-3c2.92-3.46 6-5 10-7l4-4h3l1-3c1.97-1.05 3.98-2.05 6-3l3.19-2.19c2.81-1.81 2.81-1.81 5.81-1.81l1-3c6.32-4.89 13.1-5.8 20.9-5.48 3.09.477 3.09.477 6.34 2.48 2.78 4.77 3.67 8.82 3.88 14.3-1.45 4.77-4.04 7.98-7.06 11.9-2.77 3.73-4.91 7.68-7.07 11.8-2.64 4.66-2.64 4.66-4.48 6.37-1.74 1.86-2.38 3.42-3.21 5.82-.251.715-.503 1.43-.762 2.17-.182.543-.364 1.09-.551 1.64h-2l-.312 2.25c-.688 2.75-.688 2.75-2.14 4.61-1.72 2.38-2.33 4.31-3.05 7.14-.953 3.72-2.2 5.96-4.5 9-.884 2.3-.884 2.3-1.5 4.75-.86 3.07-1.76 6.04-2.94 9-1.44 3.71-2.5 7.48-3.56 11.3-3.89 13.8-3.89 13.8-9 17.9-5.26 1.75-9.49 1.65-14.5-.5l-2.5-1.5v-2h-2c-3.24-4.86-2.54-10.6-1.65-16.2.953-4.04 2.41-7.84 3.93-11.7 1.04-3.01 1.62-6.08 2.2-9.21.527-1.88.527-1.88 2.53-3.88.758-1.69 1.46-3.4 2.12-5.12.353-.91.706-1.82 1.07-2.76.266-.699.531-1.4.805-2.12h2v-4c-3.24 1.08-3.96 1.82-6.06 4.38-.76.909-.76.909-1.54 1.84-1.21 1.54-2.32 3.16-3.4 4.79h-2l-.812 2.31c-1.17 2.64-2.2 3.7-4.19 5.69l-1 2.56c-1 2.44-1 2.44-4 4.44l-1.56 2.62-1.44 2.38h-2l-.375 2.25c-.586 2.58-1.26 4.5-2.62 6.75l-2 1c-.903 1.88-.903 1.88-1.62 4.06-.26.733-.521 1.47-.789 2.22-.193.566-.387 1.13-.586 1.71h-2l-.25 2.06c-.782 3.06-2.1 5.37-3.71 8.07-1.34 2.42-2.26 4.96-3.19 7.57-1.03 2.8-2.19 5.55-3.35 8.3-3.05 7.28-5.77 14.6-8.18 22.1-.373 1.14-.373 1.14-.754 2.31-.226.7-.451 1.4-.684 2.12-.879 2.44-.879 2.44-2.38 5.73-1.66 3.82-2.4 7.62-3.06 11.7-.858 5.12-1.95 10-3.44 15-.73 2.99-1.36 5.99-2 9l-.5 2.23c-1.3 6.07-2.09 12.1-2.71 18.3-.393 3.54-.77 5.42-2.79 8.45-.429 2.38-.429 2.38-.562 5.09-.11 1.61-.11 1.61-.223 3.25-.0708 1.19-.142 2.37-.215 3.59-.0805 1.24-.161 2.47-.244 3.75-.527 8.31-.92 16.6-1.29 25-.0443.995-.0887 1.99-.134 3.01-.221 5-.433 9.99-.633 15-.0588 1.4-.0588 1.4-.119 2.84-.0742 1.77-.145 3.55-.211 5.32-.254 5.97-.254 5.97-1.37 8.19h-2c-.289.639-.578 1.28-.875 1.94-1.12 2.06-1.12 2.06-3.12 3.06-7.13.722-12.3.43-18-4-3-4.06-3-4.06-3-7-1.22-.248-2.43-.495-3.69-.75-3.99-.811-6.36-2.45-9.31-5.25-.995-2.85-.995-2.85-1.51-6.12-.2-1.18-.401-2.37-.607-3.58-.281-1.85-.281-1.85-.568-3.73-.395-2.44-.795-4.87-1.2-7.31-.167-1.08-.334-2.16-.507-3.27-.584-2.87-1.48-5.29-2.61-7.98-.62-2.68-1.2-5.36-1.75-8.06-1.84-8.65-4.27-17.1-6.88-25.5-.456-1.48-.912-2.95-1.37-4.43-.206-.658-.412-1.32-.624-1.99-.971-3.21-1.38-5.6-1.38-9.01h-2c-.182-.641-.364-1.28-.551-1.94-2.12-7.31-4.9-14-8.34-20.8-1.71-3.47-3.28-7-4.86-10.5-6.32-13.7-13.8-27-23-39-.553-.724-1.11-1.45-1.68-2.2-.494-.629-.987-1.26-1.5-1.91-1.07-1.59-1.07-1.59-1.07-3.59l-2-1c-1.01-1.1-1.99-2.23-2.94-3.38-2.74-3.29-5.65-6.23-8.75-9.19-2.31-2.44-2.31-2.44-2.31-4.44-.548-.24-1.1-.48-1.66-.727-2.9-1.58-5.24-3.53-7.78-5.65-6.82-6.01-6.82-6.01-14.6-10.6v-2l-3.25-.812c-3.75-1.19-3.75-1.19-5.67-2.63-2.3-1.72-4.46-2.62-7.14-3.62-3-1.12-5.24-2.14-7.94-3.94-1.57-.371-3.16-.678-4.75-.938-4.47-.819-8.16-2.11-12.2-4.06v3l4 1 .25 1.88c1 2.85 2.06 2.82 4.75 4.12 2.15 1.86 4.2 3.8 6 6v2l3 1c.333 1.33.667 2.67 1 4l3 1c.667 1.67 1.33 3.33 2 5l3 1c.685 1.32 1.35 2.66 2 4l1.75 1.75c2.01 2.01 3.75 4.02 5.5 6.25.521.66 1.04 1.32 1.58 2 1.17 2 1.17 2 1.17 6l3 1c4.32 5.2 7.4 11.4 10.6 17.4 1.24 2.27 2.54 4.45 3.93 6.62 3.09 4.86 5.78 9.93 8.5 15 .616 1.13 1.23 2.26 1.87 3.42.932 1.71.932 1.71 1.88 3.46.572 1.05 1.14 2.1 1.73 3.18 1.35 2.62 2.44 5.21 3.52 7.95 1.49 3.17 2.99 6.33 4.52 9.47 1.66 3.49 2.94 6.69 3.48 10.5h2c.137.581.273 1.16.414 1.76 1.23 4.72 3.14 9.21 5.09 13.7 2.05 4.87 3.63 9.86 5.25 14.9 1.14 3.49 2.31 6.82 3.81 10.2 1.45 3.54 2.23 6.84 2.91 10.6.418 2.14.418 2.14 2.53 3.92.547 1.89.547 1.89.965 4.18.159.84.318 1.68.481 2.55.162.894.324 1.79.491 2.71 1.06 5.62 2.13 11.1 3.81 16.6 1.81 6.34 2.81 12.9-.312 18.9-3.82 3.13-7.52 4.67-12.4 5.5-4.36-.711-7.63-2.76-11.1-5.5-2.09-3.14-2.65-5.22-3.44-8.88-.385-1.74-.385-1.74-.777-3.51-.259-1.19-.518-2.39-.785-3.62-1.49-6.79-2.98-13.5-5.32-20.1-.631-1.79-1.16-3.62-1.68-5.44l-1-2.5c-3.78-1.26-6.84-.64-10.7-.0625-1.05.15-1.05.15-2.13.303-1.73.247-3.46.503-5.19.76v2c-.808.182-1.62.364-2.45.551-1.07.251-2.14.503-3.24.762-1.06.244-2.11.487-3.2.738-3.11.947-5.36 2.27-8.11 3.95-2.46.73-2.46.73-4.81 1.19-1.19.238-1.19.238-2.39.48-.592.11-1.18.219-1.79.332v3c-3 2-3 2-6 2v3l-3 1c-.385 5.87-.385 5.87 2 11 1.66.686 3.33 1.35 5 2 2.3 1.13 4.59 2.27 6.88 3.44 15.1 7.67 30.4 12.3 47.1 14.6v2c32.1 3.94 32.1 3.94 64.5 4.9 3.52.102 3.52.102 5.52 2.1 1.96.305 1.96.305 4.23.259 1.31.00946 1.31.00946 2.65.0191.946-.00405 1.89-.0081 2.87-.0123 1.45.00287 1.45.00287 2.94.0058 2.05.00136 4.1-.00234 6.15-.0107 3.15-.0107 6.29-.000107 9.44.0127 1.99-.00132 3.98-.00388 5.97-.00781 1.42.00607 1.42.00607 2.87.0123.874-.0063 1.75-.0126 2.65-.0191.771-.00159 1.54-.00318 2.34-.00482 2.14-.0909 2.14-.0909 3.9-2.25 1.82-.167 1.82-.167 4.01-.0747 4.99.109 9.84-.254 14.8-.73 1.34-.126 1.34-.126 2.71-.255 1.87-.178 3.74-.358 5.62-.54 2.88-.278 5.76-.541 8.64-.803 1.82-.175 3.65-.351 5.47-.527.863-.0772 1.73-.154 2.62-.234 2.05-.207 4.1-.512 6.13-.836l1-2c1.83-.344 1.83-.344 4.25-.5 4.21-.346 8.38-.823 12.6-1.44 1.06-.153 2.12-.307 3.21-.465 2.87-.575 5.28-1.5 7.98-2.6 3.31-.125 3.31-.125 6 0v-2l10-2v-2c3.62-1.32 6.1-2 10-2l1-3c1.67-.667 3.33-1.33 5-2 2.77-1.98 5.45-3.9 7-7h2c-1.28-4.99-3.13-7.61-7-11l-2-1v-2c-.581-.121-1.16-.242-1.76-.367-2.29-.649-4-1.56-6.05-2.76-4.2-2.19-6.65-2.01-11.2-.875l-.312 1.81c-.688 2.19-.688 2.19-2.06 3.5-2.4 2.49-3.28 5.54-4.62 8.69l-2 1c-.83 1.85-.83 1.85-1.5 4-.719 2.19-.719 2.19-1.5 4l-2 1-1.25 2.31c-2.24 3.44-4.04 4.9-7.75 6.69-5.4.319-10.6-.845-15-4-2.88-4.64-3.47-8.2-2.66-13.6 1.21-4.45 3.4-8.42 5.66-12.4h3l.438-2.31c1.13-5.4 1.13-5.4 4.56-7.69 1.04-1.64 2.03-3.31 3-5 .992-1.51 1.99-3 3-4.5 1.61-2.39 3.14-4.74 4.56-7.25 2.48-3.88 5.04-6.78 9.44-8.25v-3h2c.0902-.592.18-1.18.273-1.79.912-2.77 2.1-3.7 4.35-5.52 4.89-4.08 9.31-8.51 13.7-13.1 1.69-1.56 1.69-1.56 3.69-1.56.268-.639.536-1.28.812-1.94 1.19-2.06 1.19-2.06 4.19-3.06l1-3c1.67-.667 3.33-1.33 5-2l1-3c2.14-1.68 2.14-1.68 4.81-3.44 3.45-2.28 6.28-4.63 9.19-7.56 5.36-3 5.36-3 8-3v-2l2.62-1.25c3.31-1.72 6.28-3.67 9.38-5.75 3.2-1.96 6.37-3.75 9.88-5.12 2.3-.674 2.3-.674 3.12-2.88 5.14-3.02 9.99-4.81 16-4 4.82 2.3 7.91 5.08 10 10 .23 2.29.23 2.29.188 4.62-.00645.776-.0129 1.55-.0195 2.35-.168 2.02-.168 2.02-1.17 4.02h-2c-.289.928-.578 1.86-.875 2.81-1.12 3.19-1.12 3.19-3.12 6.19h-2l-.375 2.94-.625 3.06-2 1c-1.13 2.11-1.13 2.11-2.12 4.56-.353.826-.706 1.65-1.07 2.5-.266.638-.531 1.28-.805 1.93h-2c-.112.715-.224 1.43-.34 2.17-.705 3.02-1.79 5.4-3.22 8.14-.455.883-.91 1.77-1.38 2.68-.349.664-.699 1.33-1.06 2.01h-2c-.193.592-.387 1.18-.586 1.79-1.36 4.12-2.73 8.2-4.41 12.2h-2l-.125 2.5c-1.17 4.67-3.56 8.04-6.88 11.5-5.46 1.82-11 1.66-16.4-.125-3.27-2.39-4.28-4.03-5.56-7.88-.709-5.58-.359-9.35 3-14 .673-1.66 1.34-3.33 2-5l2-3c-2.39.576-4.67 1.22-7 2l-.875 1.75c-1.53 3.06-3.57 5-6.12 7.25h-3l-.75 2.25c-1.34 2.95-2.86 4.6-5.25 6.75 2.51 3.76 4.86 4.39 9 6v2l5 2v2c.596.0993 1.19.199 1.8.301 3.87 1.23 5.96 4.44 8.2 7.7.7 1.99 1.38 3.99 2 6l3 1c3.31 7.77 2.72 17.9 1 26l-2 1c-.621 1.81-.621 1.81-1 4l-.5 2.44-.5 2.56c-.326 1.67-.658 3.33-1 5l-.438 2.25-.562 1.75-2 1c-.618 2.71-.618 2.71-1 5.88-.523 3.88-.803 5.83-3 9.12-.536 2.03-1.01 4.07-1.44 6.12-.843 3.83-1.7 7.55-3 11.2-1.54 4.38-2.7 8.84-3.87 13.3-1.69 6.43-3.62 12.8-5.55 19.1-1.56 5.17-3.06 10.3-4.41 15.6-.652 2.28-1.38 4.51-2.14 6.75-1.66 4.92-3.12 9.89-4.54 14.9-.26.911-.52 1.82-.788 2.76-1.59 5.62-3.08 11.3-4.46 16.9-1.64 6.7-3.39 13.2-6.28 19.4-1.8 4.15-2.66 8.39-3.54 12.8-1.13 5.71-2.66 10.6-5 16-.776 2.64-1.39 5.31-2 8-.924 4.09-1.91 7.8-3.58 11.7-1.31 3.07-1.83 5.36-2.17 8.64-1.02 6.29-3.95 11-8.25 15.7-4.8 1.6-10.2 1.61-15 0v-2l-1.88-.875c-2.12-1.12-2.12-1.12-4.12-3.12-.911-8.14.17-15.4 3-23 1.2-3.45 2.2-6.8 2.94-10.4.792-3.72 1.94-7.12 3.34-10.7.739-2.02 1.28-4.01 1.79-6.1.818-3.38 1.84-6.58 2.94-9.88.503-1.99.98-3.98 1.44-5.97.562-2.03.562-2.03 1.5-4.31 1.3-3.31 2.17-6.65 3.06-10.1 1.28-4.89 2.59-9.77 4-14.6h2c.0374-.617.0748-1.23.113-1.87.477-6.15 1.79-11.4 3.89-17.1.683-2.33 1.35-4.66 2-7 4-14 4-14 4.89-17.1.795-2.78 1.58-5.56 2.37-8.34.475-1.68.95-3.35 1.43-5.03.255-.901.511-1.8.774-2.73 1.43-5.01 2.91-10 4.45-15 .474-1.53.474-1.53.958-3.09.612-1.96 1.23-3.93 1.85-5.89 1.65-5.3 2.77-10.3 3.27-15.8-4.98.515-9.28 1.25-14 3-5.35 1.95-10.7 2.92-16.3 3.86-3.93.656-3.93.656-7.6 2.13-2.72 1.28-5.19 1.61-8.17 2.01-1.19.165-2.37.33-3.6.5-1.24.165-2.48.33-3.75.5-1.2.165-2.4.33-3.64.5-2.44.335-4.88.667-7.32.997-3.63.498-7.26 1.03-10.9 1.56-31.7 4.52-64.2 3.91-96 2.07-.703-.0391-1.41-.0782-2.13-.119-12-.691-12-.691-16.8-2.01-6.34-1.64-12.8-1.78-19.4-2.2-1.03-.0748-2.07-.15-3.13-.227-.934-.0606-1.87-.121-2.83-.184-2.58-.387-4.25-1.16-6.53-2.38-2.22-.373-4.45-.679-6.69-.938-5-.657-9.45-1.59-14.2-3.34-2.43-.811-4.82-1.27-7.34-1.72-4.05-.749-7.17-2.05-10.8-4-2.32-.769-4.64-1.39-7-2 1.77 6.65 3.64 13.3 5.56 19.9.21.725.419 1.45.635 2.2.855 2.91 1.73 5.76 2.9 8.57 1.4 3.64 1.73 7.38 2.25 11.2.613 2.91 1.58 5.31 2.8 8.01 1.91 4.73 3.13 9.71 4.48 14.6.312 1.1.624 2.2.945 3.34 1.5 5.38 2.84 10.6 3.43 16.2h2c.182.906.364 1.81.551 2.75 1.29 6.23 2.68 12.2 4.82 18.2 1.02 3.31 1.32 6.6 1.63 10h2c.254.99.508 1.98.77 3 1.76 6.8 3.52 13.5 6.23 20 .393.968.786 1.94 1.19 2.93 2.1 5.12 4.21 10.2 6.81 15.1.646 1.25.646 1.25 1.3 2.52 2.82 5.34 5.78 10.2 9.59 14.9 1.1 1.56 1.1 1.56 1.1 3.56h2c.227.557.454 1.11.688 1.69 1.29 2.52 1.29 2.52 3.88 4.81 2.47 2.54 2.66 3.29 3.44 6.5 1.97 1.15 1.97 1.15 4 2l1 2c1.66 1.01 3.33 2.01 5 3 1.92 1.51 3.81 3.06 5.69 4.62 3.46 2.99 3.46 2.99 7.31 5.38v2l9 3v2c.557.182 1.11.364 1.69.551 5.15 1.7 10.2 3.51 15.3 5.45v2l11 1v2c.595.0501 1.19.1 1.8.152 2.69.232 5.38.477 8.07.723 1.41.118 1.41.118 2.84.238.896.0838 1.79.168 2.71.254.827.0733 1.65.147 2.51.222 2.06.411 2.06.411 4.06 2.41 2.56.307 2.56.307 5.58.259 1.17.0063 2.34.0126 3.54.0191 1.27-.00405 2.54-.0081 3.84-.0123 1.3.00191 2.59.00383 3.93.0058 2.75.00295 5.5-.00134 8.25-.0107 3.52-.0114 7.04-.00485 10.6.00714 3.36.00898 6.72.00268 10.1-.00226 1.9.00607 1.9.00607 3.83.0123 1.17-.0063 2.35-.0126 3.56-.0191 1.03-.00159 2.07-.00318 3.13-.00482 2.77-.259 4.31-.918 6.71-2.25 2.09-.352 4.2-.636 6.31-.875 9.88-1.3 19.3-3.93 28.7-7.12 1.18-.369 1.18-.369 2.38-.746 3.34-1.06 6.26-2.03 9.25-3.88 3.07-1.78 5.88-2.03 9.38-2.38v-2c1.62-.671 3.25-1.34 4.88-2 .905-.371 1.81-.742 2.74-1.12 2.38-.875 2.38-.875 4.38-.875v-2c1.27-.506 2.54-1 3.81-1.5.708-.278 1.42-.557 2.14-.844 2.04-.656 2.04-.656 5.04-.656l1-3 6-1 1-3c1.96-1.39 1.96-1.39 4.38-2.69 1.19-.655 1.19-.655 2.4-1.32 2.23-.988 2.23-.988 5.23-.988l1-3c2-.667 4-1.33 6-2l1-3c1.63-1.06 3.3-2.05 5-3 4.99-3.47 9.93-6.99 14.5-11 2.5-2 2.5-2 5.5-2l1-3c1.78-1.82 1.78-1.82 3.94-3.69.71-.623 1.42-1.25 2.15-1.89 1.91-1.43 1.91-1.43 3.91-1.43.262-.599.523-1.2.793-1.82 1.28-2.31 2.47-3.48 4.52-5.12 2.3-1.88 4.45-3.78 6.5-5.94 2.19-2.12 2.19-2.12 4.19-2.12l.125-1.69c1.09-2.88 2.87-4.15 5.25-6.02 3.78-3 6.6-5.92 8.62-10.3l2-1c.289-.598.578-1.2.875-1.81 1.64-3.19 4.14-5.28 6.75-7.69 1.45-1.44 1.45-1.44 2.25-3.31 1.59-3.1 3.9-5.52 6.12-8.19 1.28-2.22 1.28-2.22 2-4h2l.375-2.44.625-2.56 2-1c1.01-1.68 1.96-3.39 2.88-5.12.526-.989 1.05-1.98 1.59-3 .505-.95 1.01-1.9 1.53-2.88 1.31-2.34 2.66-4.67 4-7h2c.182-.592.364-1.18.551-1.79.377-1.19.377-1.19.762-2.39.365-1.17.365-1.17.738-2.36 1.05-2.71 2.42-4.99 3.95-7.46 4.5-8.45 8.33-17.2 12-26 .383-.922.766-1.84 1.16-2.79 1.9-4.65 3.6-9.32 5.13-14.1.513-1.52 1.09-3.02 1.7-4.5 1.08-2.77 1.88-5.54 2.64-8.41.391-1.46.391-1.46.789-2.96.193-.736.387-1.47.586-2.23h2l.312-3.88c.523-5.2 1.29-10.3 2.12-15.5.122-.785.244-1.57.37-2.38.186-1.12.186-1.12.376-2.27.163-1 .163-1 .33-2.03.487-1.95.487-1.95 1.47-3.85 17.1-35.3 6.36-101-3.28-137-.839-3.21-1.58-6.43-2.3-9.67-2.65-11.8-5.91-23.4-11.2-34.4-1.33-2.89-2.45-5.82-3.55-8.81-2.35-6.26-5.15-12.2-8.1-18.2-2.59-5.34-2.59-5.34-2.59-8.65h-2c-.506-.945-.506-.945-1.02-1.91-1.55-2.89-3.11-5.77-4.67-8.65-.53-.991-1.06-1.98-1.61-3-2.35-4.34-4.68-8.55-7.6-12.5-2.11-2.91-2.11-2.91-2.11-4.91h-2c-4-6.75-4-6.75-4-9h-2c-1.4-1.57-1.4-1.57-2.94-3.69-.532-.732-1.06-1.46-1.61-2.22-1.59-2.3-3.02-4.69-4.45-7.09-1.71-2.25-3.41-4.41-5.41-6.41-4.02-4.03-7.66-8.45-11.3-12.8-2.23-2.74-2.23-2.74-4.62-5-1.69-1.75-1.69-1.75-1.69-3.75l-1.62-.688c-5.1-2.82-9.45-7.05-13.4-11.3v-2c-.849-.383-.849-.383-1.71-.773-2.56-1.38-4.61-3-6.85-4.85-4.65-3.8-9.46-7.29-14.4-10.7-.678-.549-1.36-1.1-2.05-1.66v-2l-5-2v-2l-2.81-.875c-3.19-1.12-3.19-1.12-6.19-3.12v-2c-1.07-.414-1.07-.414-2.17-.836-2.79-1.15-5.45-2.43-8.14-3.79-.883-.446-1.77-.892-2.68-1.35-.664-.338-1.33-.675-2.01-1.02v-2c-.864-.257-1.73-.513-2.62-.777-3.49-1.26-6.35-2.85-9.51-4.79-4.67-2.89-4.67-2.89-9.88-4.44v-2c-1.17-.29-1.17-.29-2.37-.586-1.01-.26-2.02-.521-3.07-.789-1.51-.383-1.51-.383-3.06-.773-2.5-.852-2.5-.852-3.5-2.85-2.27-.853-4.5-1.6-6.81-2.31-4.91-1.56-9.65-3.24-14.4-5.31-5.01-2.17-9.98-3.54-15.3-4.7-2.5-.676-2.5-.676-5.5-2.68-1.59-.476-3.2-.888-4.82-1.25-.929-.215-1.86-.429-2.81-.65-.967-.217-1.93-.434-2.93-.658-1.92-.437-3.84-.875-5.75-1.32-1.28-.287-1.28-.287-2.58-.58-2.11-.541-2.11-.541-4.11-1.54-2.35-.34-4.7-.632-7.05-.902-1.43-.17-2.87-.34-4.3-.51-2.26-.264-4.52-.525-6.78-.783-2.18-.25-4.36-.509-6.54-.77-1.31-.151-2.61-.301-3.96-.457-3.36-.578-3.36-.578-5.26-1.59-2.49-1.17-4.29-1.26-7.04-1.31-.991-.019-1.98-.0379-3-.0575-1.62-.0131-1.62-.0131-3.26-.0265-1.7-.0205-1.7-.0205-3.43-.0414-3.72-.0345-7.45-.0467-11.2-.0523-1.27-.00401-2.53-.00802-3.83-.0121-18.2-.0141-36.1.953-54.2 3.39-1.01.135-2.01.27-3.05.408-2.83.387-5.65.791-8.47 1.21-.827.121-1.65.242-2.5.367-3.74.591-6.86 1.29-10.2 3.14-2.24.287-4.49.49-6.75.625-1.17.0748-2.34.15-3.55.227-.892.049-1.78.098-2.7.148v2c-1.05.266-2.1.531-3.18.805-1.38.356-2.76.713-4.14 1.07-1.04.261-1.04.261-2.09.527-3.31.865-5.72 1.68-8.6 3.6-3.11.884-6.23 1.67-9.38 2.41-4.03 1.01-7.14 2.36-10.6 4.59-2.33.672-4.67 1.34-7 2l-2 2c-1.42.532-2.86 1.01-4.31 1.44-3.59 1.14-6.51 2.5-9.69 4.56-4.25 2.22-8.58 4.14-13 6l1 2-10 2-1 3c-2.69 1.5-2.69 1.5-6 3-4.73 2.11-4.73 2.11-8 6-2.62 1.19-2.62 1.19-5 2l1 2-2.75.875c-3.88 1.34-6.46 2.33-9.38 5.25l-1.88 1.88h-2v3l-2.25.75c-2.84 1.1-2.84 1.1-4.81 3.31-1.94 1.94-1.94 1.94-4.06 2.44l-1.88.5c-1.05 1.85-1.05 1.85-2 4-2.36 2.66-3.59 3.86-7 5l-1 3c-1.66 1.34-3.33 2.68-5 4-1.34 1.66-2.67 3.33-4 5-3.52 3-3.52 3-6 3v3c-2.37 2.64-4.81 4.85-7.62 7-2.57 2.17-3.69 4.11-5.38 7-2.39 3-4.87 5.9-7.61 8.57-1.61 1.65-2.45 3.33-3.39 5.43h-2l-.812 2.44c-.392.846-.784 1.69-1.19 2.56l-3 1c-.729 1.64-1.39 3.31-2 5-.969 1.68-1.97 3.35-3 5l-1.56 2.81-1.44 2.19h-2c-.103.719-.206 1.44-.312 2.18-.762 3.13-1.96 5.24-3.69 7.95-1.7 2.68-2.99 4.85-4 7.88h-2l-.25 2.06c-.784 3.07-2.09 5.42-3.71 8.12-1.62 2.82-2.8 5.81-4.04 8.81-.683 1.56-1.37 3.13-2.06 4.69-.321.726-.642 1.45-.973 2.2-.609 1.33-1.25 2.66-1.92 3.96-1.41 2.9-2.52 5.89-3.67 8.9-.669 1.76-.669 1.76-1.35 3.55-.338.892-.675 1.78-1.02 2.7h-2c-.107 1.15-.214 2.29-.324 3.48-.571 4.56-1.93 8.6-3.49 12.9-2.93 8.39-4.99 16.8-6.75 25.5-.451 2.17-.949 4.32-1.45 6.48-1.11 4.96-1.84 9.96-2.55 15-.249 1.76-.5 3.52-.754 5.27-.108.765-.215 1.53-.326 2.32-.357 2.03-.357 2.03-1.36 5.03-1.34 12.5-1.15 25.2-1.13 37.7.00537 3.31.0000198 6.63-.00635 9.94-.00668 15.5.402 30.6 3.14 45.9.267 1.55.267 1.55.539 3.14 1.32 7.62 2.9 15.1 4.8 22.6.946 3.75 1.86 7.5 2.7 11.3.17.754.341 1.51.516 2.28.324 1.44.643 2.89.954 4.34.975 4.32 2.48 7.84 4.48 11.8 1.23 3.22 2.33 6.48 3.44 9.75 5.3 15.4 11.5 30.1 20.2 43.9 1.32 2.36 1.32 2.36 1.32 5.36h2c.291.534.583 1.07.883 1.62 2.38 4.33 4.81 8.62 7.3 12.9.489.835.977 1.67 1.48 2.53 1.19 2.1 1.19 2.1 3.33 2.97 1.44 2.22 2.72 4.51 4.01 6.82 2.16 3.84 2.16 3.84 4.99 7.18 8.91 10.1 8.91 10.1 11.4 14.5 2.38 3.81 5.63 6.62 8.88 9.69 1.69 1.81 1.69 1.81 1.69 3.81h2c1.15 1.42 2.3 2.85 3.45 4.29 2.27 2.5 4.92 4.32 7.65 6.29 2.54 1.91 4.65 4.18 6.9 6.43 1.49 1.18 2.99 2.35 4.5 3.5 3.44 2.63 6.48 5.4 9.5 8.5l2.81 2.19 2.19 1.81v2c.969.268 1.94.536 2.94.812l3.06 1.19 1 3c1.33.345 2.66.675 4 1 3.25 1.94 3.25 1.94 6 4v2l2.06.75c3.51 1.49 6.65 3.32 9.94 5.25v2l7 2v2l2.88.875c3.12 1.12 3.12 1.12 5.12 3.12 1.81.65 3.63 1.3 5.45 1.95 4.35 1.8 8.4 4.15 12.5 6.43 2.94 1.64 2.94 1.64 5.74 2.65 3.95 1.65 6.31 4.21 8.31 7.97.649 3.75.768 7.26 0 11-1.47 1.64-1.47 1.64-3 3l-1 3c-2.77 1.8-5.04 2.3-8.31 2.31-.718.0168-1.44.0335-2.18.0508-6.07-.877-11.8-4.44-17.3-7.18-.7-.352-1.4-.704-2.12-1.07-5.78-2.92-11.5-5.94-17.1-9.12-.963-.543-1.93-1.09-2.92-1.64-14.4-8.25-27.8-17.9-40.8-28.1-2.98-2.33-2.98-2.33-6.24-4.24v-2c-.568-.262-1.14-.523-1.72-.793-6.16-3.26-11.5-8.18-16.3-13.2l-2.44-2.38c-1.91-1.96-3.64-3.9-5.38-6-2.22-2.64-4.56-4.89-7.19-7.12-3.7-3.16-7.21-6.49-10-10.5v-2h-2v-2h-2v-3l-4-2v-3c-.559-.195-1.12-.389-1.7-.59-3.26-2-5.06-4.87-7.18-7.97-.658-.941-.658-.941-1.33-1.9-2.92-4.2-5.78-8.45-8.54-12.8-1.2-1.81-1.2-1.81-2.77-3.22-1.8-1.88-2.65-3.74-3.73-6.11-2.3-4.77-5.07-8.95-8.2-13.2-1.42-2.03-2.5-3.99-3.55-6.23-.353-.672-.706-1.34-1.07-2.04-.348-.669-.696-1.34-1.05-2.03-.353-.672-.706-1.34-1.07-2.04-.805-1.9-.805-1.9-.805-4.9h-2c-12.5-27.8-12.5-27.8-16.1-39.5-.852-2.69-.852-2.69-2.89-5.5-.555-1.92-1.05-3.86-1.5-5.81-.97-4.16-2.15-8.14-3.5-12.2-11.4-39.4-15.8-80.3-13.2-121 .166-2.71.288-5.42.396-8.14.0699-1.63.14-3.25.211-4.88.0268-.709.0537-1.42.0813-2.15.217-4.22 1.14-7.62 2.48-11.6.575-3.17.968-6.37 1.38-9.56 1.05-7.75 2.28-15.4 3.75-23.1.171-.902.341-1.8.517-2.73 1.23-6.31 1.23-6.31 2.36-8.58h2c.0606-.843.121-1.69.184-2.55.0838-1.1.168-2.19.254-3.32.0812-1.09.162-2.18.246-3.3.316-2.82.316-2.82 1.32-4.82h2l-.25-2.81c0-7.64 4.08-15 7.2-21.8 1.19-2.73 2.21-5.49 3.23-8.28 2.22-5.84 4.76-11.5 7.44-17.1.384-.813.769-1.63 1.16-2.46 1.9-3.97 3.92-7.77 6.21-11.5l1-3h2c.116-.57.232-1.14.352-1.73.709-2.49 1.73-4.41 3.02-6.65 1.54-2.69 2.97-5.33 4.31-8.12 1.31-2.5 1.31-2.5 3.31-3.5.722-1.64 1.39-3.31 2-5h2c.272-.722.544-1.44.824-2.19 1.15-2.76 2.47-5.24 3.99-7.81.481-.825.962-1.65 1.46-2.5 1.98-2.85 4.27-5.06 6.73-7.5 1.92-2.28 3.74-4.64 5.56-7 1.39-1.79 2.77-3.57 4.16-5.36 1.17-1.52 2.33-3.05 3.49-4.58.884-1.02.884-1.02 1.79-2.06h2l2-5h2c.227-.557.454-1.11.688-1.69 1.69-2.97 3.84-4.96 6.31-7.31l5-5c.521-.544 1.04-1.09 1.58-1.65 1.44-1.49 2.93-2.92 4.42-4.35h2c.266-.602.531-1.2.805-1.82 1.24-2.26 2.33-3.39 4.32-4.99 2.7-2.22 5.34-4.48 7.94-6.81 2.35-2.07 4.67-3.94 7.31-5.62 2.83-1.65 2.83-1.65 4.62-4.75 1.68-.955 3.36-1.91 5.06-2.82 2.7-1.64 4.94-3.67 7.26-5.81 1.68-1.37 1.68-1.37 3.7-2.36 2.13-1.09 3.3-2.32 4.98-4.01 1.64-1.11 3.31-2.17 5-3.19.866-.53 1.73-1.06 2.62-1.61 2.38-1.21 2.38-1.21 5.38-1.21l1-3c2.28-.949 4.58-1.52 6.97-2.16l2.03-.844 1-3c1.64-.719 3.32-1.37 5-2 1.47-.795 2.93-1.61 4.38-2.44 9.87-5.56 9.87-5.56 14.6-5.56v-2c5.23-2.42 10.5-4.67 15.9-6.81 1.09-.44 2.18-.879 3.3-1.33 2.82-.855 2.82-.855 5.82.145v-2c7.1-4.73 16.2-6.16 24.4-8.19 1.21-.308 1.21-.308 2.45-.623.723-.18 1.45-.36 2.19-.545 2.23-.637 2.23-.637 4.94-2.64 2.8-.57 5.56-1.07 8.38-1.5 4.82-.748 9.13-1.53 13.6-3.5 5.36-1.03 10.6-1.11 16-1l1-3c36.5-3.52 80.2-7.4 116 2z"/>
  <path fill="#F9FCFB" d="M993 335v3l-3 1c-.804.825-1.61 1.65-2.44 2.5-2.59 2.53-3.3 2.71-6.56 3.5-.289.598-.578 1.2-.875 1.81-1.31 2.54-2.75 3.81-4.94 5.62-3.22 2.73-6.24 5.54-9.19 8.56-10 10-10 10-11.8 11.7-4.57 4.45-8.61 9.12-12.5 14.2-1.66 2.1-1.66 2.1-3.66 4.1l-1.44 2.62-1.56 2.38h-3c-.268.969-.536 1.94-.812 2.94l-1.19 3.06-3 1c-.702 1.65-1.37 3.32-2 5l-2 1c-1.05 1.81-1.05 1.81-2 3.94-1.18 2.55-1.99 4.05-4 6.06-1.85 2.92-3.49 5.89-5 9l-3 6h-2l-1 8 3-1 1-3c2.56-1.19 2.56-1.19 5-2v-3c1.62-1.71 3.29-3.37 5-5l1.44-2.12c2.11-2.54 4.62-3.43 7.56-4.88 1.38-1.29 2.71-2.63 4-4 2.63-2.38 5.31-4.69 8-7l2.81-2.44c2.19-1.56 2.19-1.56 5.19-1.56l.75-1.88c1.47-2.5 2.66-2.96 5.25-4.12l1-2c1.38-.867 2.81-1.67 4.25-2.44l2.45-1.33 2.3-1.23c3.68-1.86 3.68-1.86 6-5 1.66-.683 3.33-1.35 5-2 1.22-.694 2.42-1.4 3.62-2.12 3.38-1.88 3.38-1.88 6.38-1.88v-2l9-3v-2c2.91-1.26 4.8-2 8-2l1-3c4.07-2.26 7.98-2.36 12.6-2.44 1.95-.0599 1.95-.0599 3.94-.121 3.5.559 3.5.559 5.88 2.91 3.35 5.48 3.81 9.54 3.1 15.8-.16.612-.32 1.22-.484 1.86l-2 1-1.44 2.5c-1.56 2.5-1.56 2.5-4.56 3.5-1.22 2.5-1.22 2.5-2 5h-2l-.875 2.31c-1.12 2.69-1.12 2.69-3.12 5.69h-2l-.875 2.94c-1.12 3.06-1.12 3.06-3.12 4.06-1.05 1.85-1.05 1.85-2 4-1.78 3.89-1.78 3.89-4 5-1.12 1.88-1.12 1.88-2.12 4.06-.353.733-.706 1.47-1.07 2.22-.266.566-.531 1.13-.805 1.71l2 3c.681-.289 1.36-.578 2.06-.875 5.23-2 10.4-3.25 15.9-4.12.963-.165 1.93-.33 2.92-.5 8.69-1.33 17.4-1.9 26.1-2.31 1.18-.0651 2.36-.13 3.57-.197 10.4-.412 10.4-.412 15.4 3.01v2c-3.88 1.19-6.92 2-11 2l-1 2c-1.95.946-3.93 1.81-5.94 2.62-1.08.446-2.16.892-3.28 1.35-2.79 1.02-2.79 1.02-4.79 1.02l-1 2c-2.32 1.23-4.63 2.38-7 3.5-6.29 3.06-12.4 6.34-18.4 9.88-.739.429-1.48.857-2.24 1.3-3.78 2.04-3.78 2.04-6.32 5.33-1.56 1.07-1.56 1.07-3.44 2.12-.617.353-1.23.706-1.87 1.07-1.69.805-1.69.805-3.69.805v3l-6 3v2l2 2-3.12 1.75c-2.42 1.37-4.65 2.79-6.94 4.38-2.94 1.87-5.6 2.92-8.94 3.88v2c-2.91 2.04-4.4 3-8 3l-.625 1.75c-1.9 3.11-4.29 4.35-7.38 6.25-3.78 2.42-6.88 4.79-10 8-1.76 1.53-3.54 3.03-5.32 4.54-1.83 1.56-1.83 1.56-3.99 3.84-1.69 1.62-1.69 1.62-3.69 1.62-.309.797-.309.797-.625 1.61-1.95 3.4-4.6 5.9-7.38 8.64-.547.554-1.09 1.11-1.66 1.68-4.09 4.07-4.09 4.07-6.34 4.07l-1 4h-2v3c-2.59 2.94-4.25 4.75-8 6-.701 1.65-1.36 3.32-2 5-2.31 4.1-4.65 7.68-8 11l-1.56 2.69-1.44 2.31h-2l-.438 1.75c-.521 2.08-1.04 4.17-1.56 6.25h-3l-.812 3.12c-.727 2.6-1.52 4.51-2.81 6.94-2.64 5.65-1.18 10.3.625 15.9l1.62.375c2.38.625 2.38.625 5.19 1.75 3.88 1.06 6.3.865 10.2-.125 3.44-2.22 5.5-4.17 7-8h2l.375-2.25c.58-2.55 1.36-4.48 2.62-6.75h2l.375-1.75c.631-2.27 1.51-4.18 2.62-6.25h2c.268-.949.536-1.9.812-2.88 1.19-3.12 1.19-3.12 4.19-5.12 6.3.126 10.8 2.79 16 6v2l2.25.688c3.36 1.6 4.78 3.17 6.75 6.31.25 2.81.25 2.81 0 5h-2l-.625 1.69c-2.24 3.77-5.45 6.74-9.69 8l-1.69.312-1 2c-2.29.633-2.29.633-5.06 1.12-.919.168-1.84.335-2.79.508-.71.121-1.42.242-2.15.367v2l-10 2v2c-.687.133-1.37.266-2.08.402-.901.177-1.8.353-2.73.535-.893.174-1.79.348-2.71.527-2.59.513-2.59.513-5.48 1.54-3.55.633-7.1 1.23-10.7 1.81-.737.124-1.47.249-2.23.377-.667.109-1.33.218-2.02.33-2.14.43-2.14.43-4.25 1.47-4.02 1.44-7.99 1.71-12.2 2.09-.906.086-1.81.172-2.75.26-1.91.18-3.83.356-5.74.529-2.91.263-5.82.539-8.73.816-1.87.174-3.73.347-5.6.52-.862.0812-1.72.162-2.61.246-3.92.35-7.74.581-11.7.484-3.57-.329-3.57-.329-5.51 2.07-1.9.254-1.9.254-4.23.259-.874.0063-1.75.0126-2.65.0191-1.42-.00607-1.42-.00607-2.87-.0123-.969.00191-1.94.00383-2.94.0058-2.05.00136-4.1-.00234-6.15-.0107-3.15-.0107-6.29-.000107-9.44.0127-1.99-.00132-3.98-.00388-5.97-.00781-.946.00405-1.89.0081-2.87.0123-1.31-.00946-1.31-.00946-2.65-.0191-.771-.00159-1.54-.00318-2.34-.00482-1.9-.254-1.9-.254-3.9-2.25-2.45-.214-2.45-.214-5.3-.0742-6.69.109-13.3-.248-20-.738-1.2-.0869-2.4-.174-3.64-.263-29-2.21-29-2.21-39.1-4.92v-2c-.811-.0374-1.62-.0748-2.46-.113-7.56-.449-14.3-1.59-21.5-3.89-.723-.215-1.45-.431-2.19-.652-30-9.33-30-9.33-35.8-19.3-.188-3.75-.188-3.75 0-7l4-1v-3l6-2v-3c.843-.266 1.69-.531 2.55-.805 1.64-.53 1.64-.53 3.32-1.07 1.64-.522 1.64-.522 3.3-1.05 2.91-.882 2.91-.882 4.82-3.07 2.82-.633 2.82-.633 6.12-1.12 1.1-.168 2.19-.335 3.32-.508.843-.121 1.69-.242 2.55-.367v-2c4.25-1.16 8.46-2.17 12.8-2.81.728-.11 1.46-.219 2.21-.332 1.98.145 1.98.145 3.64 1.24 1.83 2.61 2.26 5.03 2.9 8.15.967 4.65 2.1 9.19 3.44 13.8.673 2.48 1.34 4.96 2 7.44.265.981.265.981.535 1.98.926 3.45 1.75 6.9 2.46 10.4.667 3.23.667 3.23 2.88 4.56l2.12.625 1.88 1.12c3.6 1.48 6.56 1.47 10.2.082 3.71-1.75 5.57-2.7 7.91-6.21 1.06-8.04-.814-15.6-2.94-23.2-.554-2.07-1.1-4.13-1.65-6.2-.255-.958-.51-1.92-.773-2.9-.546-2.26-.932-4.44-1.2-6.75-.159-3.01-.159-3.01-2.43-4.89-.546-1.86-1.01-3.74-1.44-5.62-1.39-5.88-3.27-11.2-5.56-16.8-.881-2.26-1.63-4.51-2.38-6.81-1.31-3.98-2.91-7.73-4.64-11.5-1.5-3.37-2.82-6.71-3.99-10.2l1-2h-2c-.751-1.65-1.5-3.29-2.25-4.94-.463-1.02-.926-2.03-1.4-3.08-1.08-2.38-2.12-4.77-3.16-7.17-4.18-9.43-8.88-18.7-14-27.7-1.98-3.5-3.88-7.04-5.79-10.6-2.54-4.58-5.31-9.01-8.1-13.4-.91-1.46-1.81-2.92-2.7-4.39-.437-.719-.874-1.44-1.32-2.18-.396-.659-.791-1.32-1.2-2-1.04-1.73-1.04-1.73-3.11-2.57l-.75-2.06c-1.51-3.54-3.62-6.18-6.01-9.17-1.24-1.77-1.24-1.77-1.24-3.77l-3-1c-.685-1.32-1.35-2.66-2-4-1.31-1.36-2.65-2.69-4-4-1.34-1.66-2.67-3.33-4-5-3.21-3.87-6.36-7.62-10.3-10.8-2.54-2.13-3.34-3.36-4.69-6.25l-3-1v-3c4.21.601 7.99 1.61 12 3 1.67.433 1.67.433 3.38.875 4.16 1.29 7.79 3.1 11.6 5.12l6 3c.697.331 1.39.663 2.11 1 .726.349 1.45.699 2.2 1.06 1.02.481 1.02.481 2.05.973 1.64.965 1.64.965 2.64 2.96 1.66 1.01 3.33 2.01 5 3 2.19 1.62 4.35 3.26 6.5 4.94.833.645.833.645 1.68 1.3 1.61 1.25 3.21 2.5 4.82 3.76.891.69 1.78 1.38 2.7 2.09 2.09 1.74 3.85 3.47 5.61 5.54.512.59 1.02 1.18 1.55 1.79 1.14 1.59 1.14 1.59 1.14 3.59.605.272 1.21.544 1.83.824 21.8 11.8 37.8 55.9 46.2 77.2.304.763.608 1.53.922 2.31 1.18 3.03 2.08 5.4 2.08 8.69h2c.17.643.34 1.29.516 1.95 1.38 5.15 2.84 10.3 4.42 15.4 3.3 10.7 6.32 21.2 8.35 32.2.668 3.49.668 3.49 1.7 6.91 1.1 3.87 1.91 7.73 2.64 11.7.134.69.268 1.38.406 2.09.682 3.64 1.13 7.08.969 10.8l3 1v2h4v2l2.75.0625c3.25.938 3.25.938 5.25 4.31.478.942.478.942.965 1.9 1.81 3.02 3.72 3.7 7.04 4.72 7.24.907 7.24.907 13.6-2 .474-.66.949-1.32 1.44-2h2c.0501-1.24.1-2.47.152-3.75 1.69-41.4 1.69-41.4 2.85-60 .0707-1.23.141-2.47.214-3.74.0736-1.11.147-2.22.223-3.37.0606-.954.121-1.91.184-2.89.379-2.25.379-2.25 2.38-4.25.524-2.45.524-2.45.781-5.3.12-1.06.24-2.12.363-3.21.176-1.66.176-1.66.355-3.36.233-2.19.472-4.37.719-6.55.102-.972.205-1.94.311-2.94.463-2.58 1.24-4.33 2.47-6.63.393-2.11.722-4.24 1-6.38.585-4.46 1.54-8.38 3-12.6.503-2.1.982-4.2 1.44-6.31 1.62-7.16 3.81-13.9 6.56-20.7l.938-2.81c2.29-6.86 5-13.5 7.81-20.2 1.12-2.7 2.2-5.41 3.25-8.14 5.66-14.2 5.66-14.2 9-15.9.83-1.85.83-1.85 1.5-4 .719-2.19.719-2.19 1.5-4l2-1c.838-2 1.47-4.03 2.12-6.09.879-1.91.879-1.91 3.88-3.91l1.56-2.62c.474-.784.949-1.57 1.44-2.38h2c.0619-.701.124-1.4.188-2.12.86-3.04 2.12-4.72 4.21-7.05 2.77-3.15 5.27-6.53 7.83-9.85.876-.978.876-.978 1.77-1.98h2l1-3c2.06-.688 2.06-.688 4-1-.375 2.44-.375 2.44-1 5l-2 1c-1.06 2.17-1.06 2.17-2 4.75l-1 2.61-1 2.64c-.34.807-.681 1.61-1.03 2.45-1.46 3.84-2.27 7.81-3.19 11.8-.781 2.74-.781 2.74-2.78 5.74-1.55 6.22-2.04 13.9 0 20h2v2c5.71 2.28 11 3.27 16.8.812 7.52-6.23 8.86-18.2 11.1-27.2 1.09-3.76 2.45-7.09 4.06-10.6 1.6-3.66 3.13-7.31 4.5-11.1 1.27-3.44 2.79-6.69 4.5-9.94h4c1.57-.224 3.13-.497 4.69-.812.788-.151 1.58-.302 2.39-.457.953-.362.953-.362 1.93-.73l1-3c1.85-.73 1.85-.73 4.06-1.19.733-.159 1.47-.317 2.22-.48.566-.11 1.13-.219 1.71-.332v-2c9.88-4.35 20-7.72 30.3-10.9.658-.209 1.32-.418 2-.633 1.89-.598 3.79-1.18 5.68-1.77 1.11-.344 2.22-.688 3.36-1.04 2.65-.617 2.65-.617 4.65.383z"/>
  <path fill="#1A321A" d="M1013 468c4.83 2.25 7.92 5.1 10 10 .23 2.29.23 2.29.188 4.62-.00967 1.16-.00967 1.16-.0195 2.35-.168 2.02-.168 2.02-1.17 4.02h-2c-.289.928-.578 1.86-.875 2.81-1.12 3.19-1.12 3.19-3.12 6.19h-2l-.375 2.94-.625 3.06-2 1c-1.13 2.11-1.13 2.11-2.12 4.56-.353.826-.706 1.65-1.07 2.5-.266.638-.531 1.28-.805 1.93h-2c-.112.715-.224 1.43-.34 2.17-.705 3.02-1.79 5.4-3.22 8.14-.455.883-.91 1.77-1.38 2.68-.349.664-.699 1.33-1.06 2.01h-2c-.193.592-.387 1.18-.586 1.79-1.36 4.12-2.73 8.2-4.41 12.2h-2l-.125 2.5c-1.17 4.67-3.56 8.04-6.88 11.5-5.46 1.82-11 1.66-16.4-.125-3.27-2.39-4.28-4.03-5.56-7.88-.709-5.58-.359-9.35 3-14 .673-1.66 1.34-3.33 2-5l2-3c-2.39.576-4.67 1.22-7 2l-.875 1.75c-1.53 3.06-3.57 5-6.12 7.25h-3l-.75 2.25c-1.34 2.95-2.86 4.6-5.25 6.75 2.51 3.76 4.86 4.39 9 6v2l5 2v2c.893.149.893.149 1.8.301 3.87 1.23 5.96 4.44 8.2 7.7.7 1.99 1.38 3.99 2 6l3 1c3.31 7.77 2.72 17.9 1 26l-2 1c-.621 1.81-.621 1.81-1 4l-.5 2.44-.5 2.56c-.326 1.67-.658 3.33-1 5l-.438 2.25-.562 1.75-2 1c-.618 2.71-.618 2.71-1 5.88-.523 3.88-.803 5.83-3 9.12-.536 2.03-1.01 4.07-1.44 6.12-.843 3.83-1.7 7.55-3 11.2-1.54 4.38-2.7 8.84-3.87 13.3-1.69 6.43-3.62 12.8-5.55 19.1-1.56 5.17-3.06 10.3-4.41 15.6-.652 2.28-1.38 4.51-2.14 6.75-1.66 4.92-3.12 9.89-4.54 14.9-.26.911-.52 1.82-.788 2.76-1.59 5.62-3.08 11.3-4.46 16.9-1.64 6.7-3.39 13.2-6.28 19.4-1.8 4.15-2.66 8.39-3.54 12.8-1.13 5.71-2.66 10.6-5 16-.776 2.64-1.39 5.31-2 8-.924 4.09-1.91 7.8-3.58 11.7-1.31 3.07-1.83 5.36-2.17 8.64-1.02 6.29-3.95 11-8.25 15.7-4.8 1.6-10.2 1.61-15 0v-2l-1.88-.875c-2.12-1.12-2.12-1.12-4.12-3.12-.911-8.14.17-15.4 3-23 1.2-3.45 2.2-6.8 2.94-10.4.792-3.72 1.94-7.12 3.34-10.7.739-2.02 1.28-4.01 1.79-6.1.818-3.38 1.84-6.58 2.94-9.88.503-1.99.98-3.98 1.44-5.97.562-2.03.562-2.03 1.5-4.31 1.3-3.31 2.17-6.65 3.06-10.1 1.28-4.89 2.59-9.77 4-14.6h2c.0374-.617.0748-1.23.113-1.87.477-6.15 1.79-11.4 3.89-17.1.683-2.33 1.35-4.66 2-7 4-14 4-14 4.89-17.1.795-2.78 1.58-5.56 2.37-8.34.475-1.68.95-3.35 1.43-5.03.255-.901.511-1.8.774-2.73 1.43-5.01 2.91-10 4.45-15 .474-1.53.474-1.53.958-3.09.612-1.96 1.23-3.93 1.85-5.89 1.65-5.3 2.77-10.3 3.27-15.8h-16v2l-6 1v1c-.961.0735-.961.0735-1.94.148-5.27.456-10 1.21-15.1 2.85v1h-10v2c-4.06.168-8.11.329-12.2.482-1.38.0533-2.76.109-4.14.166-1.99.0823-3.97.157-5.96.231-1.19.0471-2.39.0943-3.62.143-2.66-.0185-4.58-.383-7.12-1.02l-3 1c-1.96.12-3.92.175-5.88.188-1.03.0142-2.06.0284-3.12.043-3.08-.236-5.19-1.03-8.01-2.23h-6l-2-2 6-3c-3.85-1.81-6.77-2.18-11-2-4.62 0-9.23-.36-13.8-.645-3.06-.186-6.1-.355-9.16-.355v-2l-2 1c-4.74 1.58-9.21 1.6-14 0v-2l-3.38.0625c-3.62-.0625-3.62-.0625-5.62-1.06v-2c1.89.0326 3.78.0651 5.66.0977 2.42-.045 2.42-.045 5.08-.614 3.35-.498 6.36-.492 9.74-.328 1.24.0536 2.48.107 3.75.162 1.3.0599 2.61.12 3.95.181 11.7.488 23.2.453 34.8-.5l-4-1v-2c1.24.0954 2.49.191 3.77.289 9.07.629 17.3.988 26.2-1.29 1.67-.341 3.33-.676 5-1v-1h18l1-2 2 .188c4.09-.256 7.21-1.64 11-3.19v-3c1.05-.124 2.1-.248 3.19-.375 3.67-.453 3.67-.453 6.38-1.69 2.93-1.13 5.33-1.08 8.44-.938v-2l10-2v-2c3.62-1.32 6.1-2 10-2l1-3c1.67-.667 3.33-1.33 5-2 2.77-1.98 5.45-3.9 7-7h2c-1.28-4.99-3.13-7.61-7-11l-2-1v-2c-.872-.182-.872-.182-1.76-.367-2.29-.649-4-1.56-6.05-2.76-4.2-2.19-6.65-2.01-11.2-.875l-.312 1.81c-.688 2.19-.688 2.19-2.06 3.5-2.4 2.49-3.28 5.54-4.62 8.69l-2 1c-.83 1.85-.83 1.85-1.5 4-.719 2.19-.719 2.19-1.5 4l-2 1-1.25 2.31c-2.24 3.44-4.04 4.9-7.75 6.69-5.4.319-10.6-.845-15-4-2.88-4.64-3.47-8.2-2.66-13.6 1.21-4.45 3.4-8.42 5.66-12.4h3l.438-2.31c1.13-5.4 1.13-5.4 4.56-7.69 1.04-1.64 2.03-3.31 3-5 .992-1.51 1.99-3 3-4.5 1.61-2.39 3.14-4.74 4.56-7.25 2.48-3.88 5.04-6.78 9.44-8.25v-3h2c.0902-.592.18-1.18.273-1.79.912-2.77 2.1-3.7 4.35-5.52 4.89-4.08 9.31-8.51 13.7-13.1 1.69-1.56 1.69-1.56 3.69-1.56.268-.639.536-1.28.812-1.94 1.19-2.06 1.19-2.06 4.19-3.06l1-3c1.67-.667 3.33-1.33 5-2l1-3c2.14-1.68 2.14-1.68 4.81-3.44 3.45-2.28 6.28-4.63 9.19-7.56 5.36-3 5.36-3 8-3v-2l2.62-1.25c3.31-1.72 6.28-3.67 9.38-5.75 3.2-1.96 6.37-3.75 9.88-5.12 2.3-.674 2.3-.674 3.12-2.88 5.24-3.58 9.74-4.72 16-4z"/>
  <path fill="#1A321A" d="M1017 368c1.3-.04 2.6-.0799 3.94-.121 3.5.559 3.5.559 5.88 2.91 3.35 5.48 3.81 9.54 3.1 15.8-.16.612-.32 1.22-.484 1.86l-2 1-1.44 2.5c-1.56 2.5-1.56 2.5-4.56 3.5-1.22 2.5-1.22 2.5-2 5h-2l-.875 2.31c-1.12 2.69-1.12 2.69-3.12 5.69h-2l-.875 2.94c-1.12 3.06-1.12 3.06-3.12 4.06-1.05 1.85-1.05 1.85-2 4-1.78 3.89-1.78 3.89-4 5-.952 1.57-1.84 3.18-2.69 4.81-2.31 4.32-4.64 8.62-7.06 12.9-.572 1.01-1.14 2.03-1.73 3.07-.75 1.11-.75 1.11-1.52 2.24h-2c-.107.86-.214 1.72-.324 2.61-.717 3.6-1.9 6.4-3.49 9.71-1.85 3.87-3.65 7.73-5.31 11.7-1.79 4.06-3.77 7.95-7.88 10-4.1.671-7.61.769-11.3-1.27-7.54-5.67-7.54-5.67-8.04-8.98-.102-7.19 1.19-12.3 4.34-18.8.482-.988.482-.988.975-2 2.3-4.69 4.65-9.35 7.03-14h2l.438-2.31c.562-2.69.562-2.69 1.56-5.69-5.06 1.73-8.48 4.44-12.2 8.25-1.81 1.75-1.81 1.75-3.81 1.75v3l-2.56 1c-3.88 2.26-5.99 4.76-8.73 8.26-1.94 1.97-3.08 2.15-5.71 2.74-1.3 2.49-1.3 2.49-2 5h-2v3c-2.59 2.94-4.25 4.75-8 6-.702 1.65-1.37 3.32-2 5l-2 1-1 2c-1 2-1 2-3 3-.495.846-.99 1.69-1.5 2.56l-1.5 2.44h-2l-.25 1.62c-1.03 3.25-2.72 5.66-4.75 8.38h-2l-.438 2.31c-1.13 5.4-1.13 5.4-4.56 7.69-.719 1.64-1.38 3.32-2 5-1.06 2.01-2.15 4.01-3.25 6-4.58 8.43-8.83 17-12 26.1-.793 2.17-1.69 4.29-2.58 6.43-6.25 15.7-10 32-12 48.8-.864 5.68-2.37 10.2-7.12 13.8-5.09 1.84-9.54 1.56-14.4-.688-3-1.62-4.84-3.35-6.56-6.31-1.14-8 .159-16.3 1.38-24.2.126-.826.252-1.65.381-2.5.638-3.83 1.04-6.01 3.24-9.31.522-2.71.972-5.4 1.38-8.12.914-5.69 1.96-10.8 4.66-15.9 1.07-2.06 1.07-2.06 1.91-4.8 1.1-3.27 2.45-6.29 3.93-9.4 1.84-3.92 3.59-7.83 5.12-11.9 2.18-5.57 5.06-10.7 8-15.9.834-1.52 1.67-3.04 2.5-4.56 5.77-10.3 12.1-20.2 19.2-29.6 1.14-1.53 2.19-3.13 3.22-4.74 2.12-3.06 2.12-3.06 4.46-5.39 3.53-3.55 6.56-7.43 9.67-11.3 1.99-2.33 1.99-2.33 3.99-3.33l1-3c2.56-1.19 2.56-1.19 5-2v-3c1.62-1.71 3.29-3.37 5-5l1.44-2.12c2.11-2.54 4.62-3.43 7.56-4.88 1.38-1.29 2.71-2.63 4-4 2.63-2.38 5.31-4.69 8-7l2.81-2.44c2.19-1.56 2.19-1.56 5.19-1.56l.75-1.88c1.47-2.5 2.66-2.96 5.25-4.12l1-2c1.38-.867 2.81-1.67 4.25-2.44l2.45-1.33 2.3-1.23c3.68-1.86 3.68-1.86 6-5 1.66-.683 3.33-1.35 5-2 1.22-.694 2.42-1.4 3.62-2.12 3.38-1.88 3.38-1.88 6.38-1.88v-2l9-3v-2c2.91-1.26 4.8-2 8-2l1-3c4.07-2.26 7.98-2.36 12.6-2.44z"/>
  <path fill="#AFDA42" d="M993 335v3l-3 1c-.804.825-1.61 1.65-2.44 2.5-2.59 2.53-3.3 2.71-6.56 3.5-.289.598-.578 1.2-.875 1.81-1.31 2.54-2.75 3.81-4.94 5.62-3.22 2.73-6.24 5.54-9.19 8.56-10 10-10 10-11.8 11.7-4.57 4.45-8.61 9.12-12.5 14.2-1.66 2.1-1.66 2.1-3.66 4.1-.474.866-.949 1.73-1.44 2.62l-1.56 2.38h-3c-.268.969-.536 1.94-.812 2.94l-1.19 3.06-3 1c-.702 1.65-1.37 3.32-2 5l-2 1c-1.05 1.81-1.05 1.81-2 3.94-1.18 2.55-1.99 4.05-4 6.06-1.85 2.92-3.49 5.89-5 9l-3 6h-2l.562 3.81c.0669 7.05-5.08 11.3-9.56 16.2-.55.767-1.1 1.53-1.67 2.32-.44.553-.879 1.11-1.33 1.68h-2c-.244.709-.487 1.42-.738 2.15-1.44 3.25-3.26 5.68-5.45 8.48-4.3 5.58-8.12 11.4-11.8 17.4-.474.744-.949 1.49-1.44 2.25-.433.679-.866 1.36-1.31 2.06-.366.574-.732 1.15-1.11 1.74-1.51 2.59-2.81 5.26-4.14 7.95-.633 1.25-1.27 2.49-1.9 3.73-3.34 6.57-6.56 13.1-9.17 20-1.02 2.52-2.23 4.88-3.49 7.29-2.2 4.25-3.55 8.42-4.66 13.1-.383.957-.383.957-.773 1.93l-3 1c-.913-3.12-1.13-5.92-1.15-9.16-.00957-1.54-.00957-1.54-.0193-3.11-.00111-1.1-.00223-2.21-.00337-3.35-.00333-1.14-.00666-2.28-.0101-3.45-.00506-2.41-.00741-4.81-.00725-7.22-.00219-3.69-.0204-7.37-.0393-11.1-.00293-2.34-.00492-4.68-.00586-7.02-.00719-1.1-.0144-2.21-.0218-3.35.00308-1.03.00615-2.06.00932-3.11-.00143-.903-.00285-1.81-.00432-2.74.264-2.6.994-4.16 2.25-6.43.324-1.74.589-3.49.812-5.25.993-6.4 2.83-12.4 4.83-18.5.938-2.88 1.8-5.76 2.62-8.68 2.22-7.96 4.57-15.3 8.74-22.6h2l.312-2.06c.835-3.57 2.18-6.6 3.69-9.94h2l2-6h2l.75-2.44c1.25-2.56 1.25-2.56 3.38-3.38l1.88-.188 2 6h2v2c5.71 2.28 11 3.27 16.8.812 7.52-6.23 8.86-18.2 11.1-27.2 1.09-3.76 2.45-7.09 4.06-10.6 1.6-3.66 3.13-7.31 4.5-11.1 1.27-3.44 2.79-6.69 4.5-9.94h4c1.57-.224 3.13-.497 4.69-.812.788-.151 1.58-.302 2.39-.457.636-.241 1.27-.482 1.93-.73l1-3c1.85-.73 1.85-.73 4.06-1.19.733-.159 1.47-.317 2.22-.48.566-.11 1.13-.219 1.71-.332v-2c9.88-4.35 20-7.72 30.3-10.9.658-.209 1.32-.418 2-.633 1.89-.598 3.79-1.18 5.68-1.77 1.11-.344 2.22-.688 3.36-1.04 2.65-.617 2.65-.617 4.65.383zm-264-56c3.94.563 6.75 1.68 10 4v2l2 .688c3.89 1.7 7.64 3.71 11 6.31v2c.732.24 1.46.48 2.22.727 3.17 1.45 4.9 3.12 7.28 5.65 2.32 2.41 4.5 4.62 7.12 6.69 4.29 3.5 8.61 7.64 10.4 12.9h2v2h2l.312 1.94.688 2.06 3 1c1.39 1.56 1.39 1.56 2.69 3.44.437.617.874 1.23 1.32 1.87.988 1.69.988 1.69.988 3.69h2c1.2 1.6 1.2 1.6 2.54 3.85.494.825.988 1.65 1.5 2.5.524.895 1.05 1.79 1.59 2.71.808 1.37.808 1.37 1.63 2.76 19.7 33.5 19.7 33.5 19.7 48.2h2c2.17 11.7 2.24 19.2-3 30-2.16 4.75-3.79 9.45-5.25 14.4-1.54 5.25-3.2 10.4-5.44 15.4-1.51 3.02-1.51 3.02-1.31 6.12-.419 1.37-.883 2.72-1.38 4.06-1.43 4.12-2.35 8.19-3.1 12.5-.624 2.91-1.57 5.64-2.53 8.46-2.32 8.32-3.55 16.6-4.27 25.2-.179 1.95-.449 3.89-.734 5.83l-2 1c-2.1-3.15-2.38-4.55-2.78-8.23-.12-1.03-.24-2.07-.363-3.13-.117-1.08-.235-2.16-.355-3.27-.725-6.53-1.52-12.9-3.04-19.3-.886-4.05-1.24-8.18-1.67-12.3-.472-4.18-1.45-7.8-2.79-11.8-.578-2.78-1.01-5.57-1.44-8.38-.258-1.61-.517-3.21-.777-4.82-.195-1.21-.195-1.21-.394-2.44-1.74-10.5-3.88-21-6.39-31.4-.197-.84-.394-1.68-.598-2.55-.611-3.52-.611-3.52-2.4-6.45-.475-2.01-.903-4.04-1.31-6.06-1.15-5.5-2.36-11-3.69-16.4-.154-.658-.308-1.32-.466-1.99-1.03-4.17-2.57-7.71-4.53-11.5v-2l3-1c1.38 1.29 2.71 2.63 4 4v2l3 1c1.84 1.95 3.49 4.01 5.18 6.09 1.84 1.93 3.37 2.88 5.82 3.91v3h2l1.25 2.19c1.58 2.54 2.66 3.7 4.94 5.5l2.81 2.31v2l16 1 2-4c.557-.722 1.11-1.44 1.69-2.19 1.96-4.2 1.69-7.43.312-11.8-2.68-4.78-5.41-8.94-10-12l-1-3c-1.66-1.64-1.66-1.64-3.69-3.25-3.33-2.82-6.1-5.74-8.86-9.11-1.5-1.69-3.07-3.05-4.83-4.45l-2.62-2.19v-2h-2v-2c-.887-.227-1.77-.454-2.69-.688-3.81-1.51-5.51-3.37-8.31-6.31-4.38-3.1-8.9-6-13.8-8.31-2.25-1.69-2.25-1.69-2.66-4.31-.73-4.18-2.34-7.39-4.28-11.1-.36-.705-.72-1.41-1.09-2.14-4.88-9.46-10.3-18.9-16.9-27.2-1.32-1.87-1.32-1.87-1.32-3.87zM556 392c.712-.000393 1.42-.000786 2.16-.00119 33.9.0223 33.9.0223 45.3 3.19v-2l-2-1h3v2c.558.241 1.12.482 1.69.73 8.08 4.44 15.9 12.9 21.3 20.3v2l1.75.75c4.45 2.47 6.77 5.91 9.25 10.2l2.19 3.19c1.81 2.81 1.81 2.81 1.81 4.81.596.242 1.19.485 1.8.734 5.71 3.29 8.25 10.3 10.2 16.3l3 1c1.03 1.67 1.03 1.67 1.94 3.75 1.24 2.67 2.28 4.51 4.19 6.81 2.38 3.09 2.99 5.66 3.88 9.44h2c.619 1.33.619 1.33 1.25 2.68.583 1.25 1.17 2.5 1.75 3.75.468 1 .468 1 .945 2.03 1.7 3.64 3.4 7.27 5.13 10.9 10.9 23 10.9 23 10.9 28.6h2l2 8h-2v-4c-.862-.331-.862-.331-1.74-.668-2.97-1.75-4.38-3.85-6.38-6.64-.796-1.09-1.59-2.18-2.39-3.27-.409-.564-.819-1.13-1.24-1.71-6.23-8.53-12.8-16.7-19.7-24.7-1.76-2.06-3.5-4.12-5.22-6.21-2.24-2.75-2.24-2.75-4.63-5.01-1.69-1.75-1.69-1.75-1.69-3.75l-3-1-.375-1.94-.625-2.06-2.12-.75c-3.78-1.64-5.57-4.12-8.13-7.28-1.7-2.06-1.7-2.06-3.96-3.6-.589-.452-1.18-.905-1.79-1.37v-2c-.563-.244-1.13-.487-1.71-.738-2.73-1.5-4.71-3.32-6.98-5.45-3.99-3.66-8.07-7.05-12.4-10.3-1.91-1.51-1.91-1.51-3.48-3.08-1.58-1.67-1.58-1.67-4.43-3.43v-2l-2.56-.688c-3.48-1.33-5.83-2.93-8.77-5.15-2.09-1.46-4.3-2.24-6.67-3.16-1.01-.993-2.01-1.99-3-3-2.4-1.61-4.8-3.17-7.25-4.69-.705-.438-1.41-.877-2.14-1.33-9.57-5.88-19.5-11-29.6-16v-2c4.73-2.37 11.3-1.19 16.5-1.19z"/>
  <path fill="#223A24" d="M702 614c1.86.0898 3.71.246 5.56.438 1.01.102 2.02.204 3.07.309.782.0838 1.56.168 2.37.254v2c32.1 3.94 32.1 3.94 64.5 4.9 3.52.102 3.52.102 5.52 2.1 1.96.305 1.96.305 4.23.259.874.0063 1.75.0126 2.65.0191.946-.00405 1.89-.0081 2.87-.0123 1.45.00287 1.45.00287 2.94.0058 2.05.00136 4.1-.00234 6.15-.0107 3.15-.0107 6.29-.000107 9.44.0127 1.99-.00132 3.98-.00388 5.97-.00781 1.42.00607 1.42.00607 2.87.0123.874-.0063 1.75-.0126 2.65-.0191.771-.00159 1.54-.00318 2.34-.00482 2.14-.0909 2.14-.0909 3.9-2.25 1.82-.167 1.82-.167 4.01-.0747 4.99.109 9.84-.254 14.8-.73.895-.084 1.79-.168 2.71-.255 1.87-.178 3.74-.358 5.62-.54 2.88-.278 5.76-.541 8.64-.803 1.82-.175 3.65-.351 5.47-.527.863-.0772 1.73-.154 2.62-.234 2.05-.207 4.1-.512 6.13-.836l1-2c6.18-1.3 12.7-1.1 19-1l-1 3c-1.89.695-1.89.695-4.25 1.12-.811.156-1.62.312-2.46.473-.757.133-1.51.266-2.29.402-3.62.66-3.62.66-7 2-2.37.23-4.75.411-7.12.562-1.28.0838-2.56.168-3.88.254-.987.0606-1.97.121-2.99.184v1c-.655.049-1.31.098-1.98.148-5 .41-9.8.996-14.7 2.04-7.57 1.37-14.8.0514-22.3-1.19v2l4-1v2c-14 2.06-27.6 2-41.7 1.37-.696-.0296-1.39-.0592-2.11-.0897-1.91-.083-3.81-.176-5.72-.27-3.56-.0964-3.56-.0964-7.27.541-3.24.449-3.24.449-6.24-.551v2c.58.049 1.16.098 1.76.148 3.65.349 6.88.729 10.4 1.91 5.02 1.64 9.8 1.17 14.9-.0625l1 2h20.01l2.81-.188c3.71.218 5.99 1.36 9.19 3.19l-6 3 1 1c2-.0322 4-.0681 5.99-.16 2.01.16 2.01.16 5.01 2.16 3.1.281 3.1.281 6.5.188 1.72-.00967 1.72-.00967 3.47-.0195 3.08-.0371 3.08-.0371 6.03-1.17 1.58.238 3.16.479 4.73.738 5.04.583 10.1.362 15.2.325 1.16-.00451 2.32-.00902 3.52-.0137 2.85-.0117 5.7-.0281 8.54-.0488v-2l6-1v-1c.71-.0606 1.42-.121 2.15-.184 1.38-.126 1.38-.126 2.79-.254.917-.0812 1.83-.162 2.78-.246 2.25-.0769 2.25-.0769 3.29-1.32 1.51-.232 3.04-.412 4.56-.562 1.24-.126 1.24-.126 2.5-.254.638-.0606 1.28-.121 1.93-.184v-1h7v-2h8v1c-2 .667-4 1.33-6 2-1.34.483-1.34.483-2.7.977-4.46 1.38-8.95 2.11-13.6 2.88-3.93.656-3.93.656-7.6 2.13-2.72 1.28-5.19 1.61-8.17 2.01-1.78.248-1.78.248-3.6.5l-3.75.5c-1.2.165-2.4.33-3.64.5-2.44.335-4.88.667-7.32.997-3.63.498-7.26 1.03-10.9 1.56-31.7 4.52-64.2 3.91-96 2.07-.703-.0391-1.41-.0782-2.13-.119-12-.691-12-.691-16.8-2.01-6.34-1.64-12.8-1.78-19.4-2.2-1.03-.0748-2.07-.15-3.13-.227-1.4-.0909-1.4-.0909-2.83-.184-2.58-.387-4.25-1.16-6.53-2.38-2.22-.373-4.45-.679-6.69-.938-5-.657-9.45-1.59-14.2-3.34-2.43-.811-4.82-1.27-7.34-1.72-4.05-.749-7.17-2.05-10.8-4-2.32-.769-4.64-1.39-7-2 1.77 6.65 3.64 13.3 5.56 19.9.21.725.419 1.45.635 2.2.855 2.91 1.73 5.76 2.9 8.57 1.4 3.64 1.73 7.38 2.25 11.2.613 2.91 1.58 5.31 2.8 8.01 1.91 4.73 3.13 9.71 4.48 14.6.312 1.1.624 2.2.945 3.34 1.5 5.38 2.84 10.6 3.43 16.2h2l1 7h-2c-1.88-2.82-2.39-4.17-3-7.38-.7-3.4-1.6-6.44-3-9.62l-1-3-2-1v-2c-.316-1.67-.652-3.34-1-5l-.375-2.38c-.651-2.74-1.72-5.11-2.87-7.67-1.11-2.86-1.68-5.78-2.3-8.77-.658-3.11-1.57-6.13-2.46-9.18-.238-.915-.477-1.83-.723-2.77-.257-.982-.513-1.96-.777-2.98-.237-.923-.474-1.85-.719-2.8-.726-2.67-.726-2.67-2.78-5.45-.344-2.02-.344-2.02-.5-4.25-.268-3.04-.708-5.77-1.62-8.69-.875-3.06-.875-3.06.125-5.06h-2v-5l-3-1c1.42-.197 2.83-.382 4.25-.562.789-.104 1.58-.209 2.39-.316 2.4-.123 4.07.205 6.36.879 2 .346 4 .681 6 1l-3 2h5l-1-2c2.41-1.2 3.95-1.1 6.62-1.06 1.23.0135 1.23.0135 2.48.0273.94.0174.94.0174 1.9.0352v2l3 1-6 3-1 2h4v-2c.592-.0606 1.18-.121 1.79-.184 5.01-.524 5.01-.524 9.96-1.44 2.66-.443 4.66-.0413 7.25.625v2h4l1-1c3-.125 3-.125 6 0l1 1c1.42.0865 2.84.107 4.25.0977.854-.00322 1.71-.00645 2.59-.00977 1.35-.0126 1.35-.0126 2.72-.0254 1.35-.00677 1.35-.00677 2.73-.0137 2.24-.0118 4.47-.0283 6.71-.0488v-2c2 1 2 1 3 2 1.57.157 3.15.251 4.73.316 1.45.0628 1.45.0628 2.93.127 1.02.0393 2.04.0786 3.09.119 1.5.0648 1.5.0648 3.04.131 4.41.184 8.8.33 13.2.307v-2h-10v-2l-9-1v2l-7 1v-2l-3.44.0625c-3.56-.0625-3.56-.0625-4.56-1.06v1c-1.12-.0116-2.24-.0232-3.39-.0352-1.47-.00938-2.95-.0185-4.42-.0273-.738-.00838-1.48-.0168-2.24-.0254-3.25-.0147-5.85.0526-8.95 1.09v-2l-3-1v-2l-3-1-1 2v-3l-3-1-2-2c3.13-1 4.87-.853 8 0 2.63.167 2.63.167 5 0l1-1c-3.19-2.13-5.32-2.34-9.06-2.71-2.27-.334-4-1.07-5.94-2.29v-2l-3-1 1-1z"/>
  <path fill="#C3ED55" d="M1065 430v2c-3.88 1.19-6.92 2-11 2l-1 2c-1.95.946-3.93 1.81-5.94 2.62-1.08.446-2.16.892-3.28 1.35-2.79 1.02-2.79 1.02-4.79 1.02l-1 2c-2.32 1.23-4.63 2.38-7 3.5-6.29 3.06-12.4 6.34-18.4 9.88-.739.429-1.48.857-2.24 1.3-3.78 2.04-3.78 2.04-6.32 5.33-1.56 1.07-1.56 1.07-3.44 2.12-.617.353-1.23.706-1.87 1.07-1.69.805-1.69.805-3.69.805v3l-6 3v2l2 2-3.12 1.75c-2.42 1.37-4.65 2.79-6.94 4.38-2.94 1.87-5.6 2.92-8.94 3.88v2c-2.91 2.04-4.4 3-8 3l-.625 1.75c-1.9 3.11-4.29 4.35-7.38 6.25-3.78 2.42-6.88 4.79-10 8-1.76 1.53-3.54 3.03-5.32 4.54-1.83 1.56-1.83 1.56-3.99 3.84-1.69 1.62-1.69 1.62-3.69 1.62-.309.797-.309.797-.625 1.61-1.95 3.4-4.6 5.9-7.38 8.64-.547.554-1.09 1.11-1.66 1.68-4.09 4.07-4.09 4.07-6.34 4.07l-1 4h-2v3c-2.25 2.69-2.25 2.69-5 5h-4c.75-7.75.75-7.75 3-10 .52-1.86.969-3.74 1.38-5.62 1.08-4.58 2.41-8.46 4.65-12.6 1.54-2.84 2.73-5.82 3.97-8.8.561-1.31 1.12-2.63 1.69-3.94l1.31-3.06h2l.375-1.69c.685-2.53 1.62-4.89 2.62-7.31h2l.375-2.44.625-2.56 2-1c.937-1.67 1.87-3.35 2.8-5.03 3.32-5.47 8.28-11.7 14.5-13.7.557-.0825 1.11-.165 1.69-.25l.5 2.62c2.09 4.69 4.93 7.09 9.5 9.38 3.18.744 5.88 1 9 0 3.91-3.27 5.99-6.47 8-11.1.499-1.14.998-2.27 1.51-3.44.491-1.13.982-2.27 1.49-3.43.935-2.02 1.87-4.04 2.81-6.06 1.12-2.42 2.11-4.59 2.7-7.18.161-.579.322-1.16.488-1.75l2-1c1.08-1.78 2.09-3.6 3.06-5.44.527-.989 1.05-1.98 1.6-3 .792-1.52 1.57-3.04 2.34-4.57h2l2 2c.681-.289 1.36-.578 2.06-.875 5.23-2 10.4-3.25 15.9-4.12l2.95-.5c8.49-1.29 17-1.9 25.5-2.31 1.12-.0651 2.24-.13 3.4-.197 6.24-.258 10.6-.0464 16.1 3.01z"/>
  <path fill="#223A24" d="M798 176c1.04-.000725 2.07-.00145 3.14-.0022 11.3.000897 22.6.124 33.9 1.19l1 3c-.617-.0232-1.23-.0464-1.87-.0703-6.01-.128-11.3.502-17.1 2.07v1c8.42 1.7 16.4 2.25 25 2v2l19 2v3l1.62-.5c2.83-.597 5.49-.566 8.38-.5v1l8 1-1 2h-7c4.79 1.13 8.84.765 13.7.191 2.62-.214 4.83.0528 7.35.809v2l2 1-11 1 4 2 1 2c2.44.262 4.8.422 7.25.5 4.6.151 8.53.474 12.8 2.5l2-2h4l1 3-5 2 1 4h-3v2c3.09-.757 3.09-.757 4.88-3.06 2.12-1.94 2.12-1.94 4.88-2.19.742.0825 1.48.165 2.25.25v2l3 1c-4.75 1-4.75 1-7 1l-1 3-8-1c3.65 1.61 7.05 2.45 11 3v2l2 1v2c-1.77-.451-3.54-.911-5.31-1.38-.986-.255-1.97-.51-2.99-.773-2.7-.852-2.7-.852-5.7-2.85-1.65-.392-3.32-.721-5-1-3.46-.577-5-1-8-3-1.59-.476-3.2-.888-4.82-1.25-.929-.215-1.86-.429-2.81-.65-.967-.217-1.93-.434-2.93-.658-1.92-.437-3.84-.875-5.75-1.32-1.28-.287-1.28-.287-2.58-.58-2.11-.541-2.11-.541-4.11-1.54-2.35-.34-4.7-.632-7.05-.902-1.43-.17-2.87-.34-4.3-.51-2.26-.264-4.52-.525-6.78-.783-2.18-.25-4.36-.509-6.54-.77-1.31-.151-2.61-.301-3.96-.457-3.36-.578-3.36-.578-5.26-1.59-2.49-1.17-4.29-1.26-7.04-1.31-.991-.019-1.98-.0379-3-.0575-1.62-.0131-1.62-.0131-3.26-.0265-1.13-.0137-2.27-.0273-3.43-.0414-3.72-.0345-7.45-.0467-11.2-.0523-1.27-.00401-2.53-.00802-3.83-.0121-18.2-.0141-36.1.953-54.2 3.39-1.51.202-1.51.202-3.05.408-2.83.387-5.65.791-8.47 1.21-.827.121-1.65.242-2.5.367-3.74.591-6.86 1.29-10.2 3.14-2.24.287-4.49.49-6.75.625-1.17.0748-2.34.15-3.55.227-.892.049-1.78.098-2.7.148v-1l2.25-.312c2.77-.482 2.77-.482 4.57-2.19 2.72-1.87 4.6-1.96 7.87-2.12 3.47.0958 3.47.0958 6.31-1.38 1.41-.21 2.83-.368 4.25-.5 3.31-.335 6.5-.778 9.75-1.5l5-1v-3l3-2 1-3c1.75-.812 1.75-.812 4-1l2.5 1.06c2.47 1.24 2.47 1.24 4.81.0625l1.69-1.12-3-1 1-4 12-1-6.84-.684c-2.16-.316-2.16-.316-4.16-1.32v-2c-4.41-2.27-7.19-1.8-12-1-1.56.0977-3.12.159-4.69.188-1.09.0213-1.09.0213-2.2.043-2.41-.263-4.02-1.04-6.11-2.23v-3c18-1.74 35.9-2.2 53.9-2.19z"/>
  <path fill="#ADD841" d="M665 419c3.86 1.41 7.16 3.22 10.6 5.44.941.597 1.88 1.19 2.85 1.81 2.12 1.47 3.88 2.78 5.52 4.75v2l1.94.812c2.06 1.19 2.06 1.19 3.06 4.19l1.94.938c2.52 1.3 3.03 2.48 4.06 5.06h2c2.26 2.47 3.83 4.54 5 7.69.766 2.45.766 2.45 2.92 3.27 6.69 3.37 10 15.2 13.1 21.8 2.16 4.66 4.49 9.22 6.87 13.8 1.14 2.54 1.63 4.78 2.13 7.52.611 1.9 1.24 3.8 1.88 5.69 2.02 6.39 3.18 12.8 4.17 19.4.548 4.08.548 4.08 1.95 7.92v7l1 2c.084 1.59.107 3.19.0977 4.79-.00483 1.41-.00483 1.41-.00977 2.85-.0126 1.48-.0126 1.48-.0254 2.98-.00451.993-.00902 1.99-.0137 3.01-.0118 2.46-.0283 4.91-.0488 7.37h-3c-.182-.773-.364-1.55-.551-2.34-1.68-6.98-3.73-13.5-6.45-20.1-.881-2.26-1.63-4.51-2.38-6.81-1.31-3.98-2.91-7.73-4.64-11.5-1.5-3.37-2.82-6.71-3.99-10.2l1-2h-2c-.751-1.65-1.5-3.29-2.25-4.94-.463-1.02-.926-2.03-1.4-3.08-1.08-2.38-2.12-4.77-3.16-7.17-4.18-9.43-8.88-18.7-14-27.7-1.98-3.5-3.88-7.04-5.79-10.6-2.54-4.58-5.31-9.01-8.1-13.4-.91-1.46-1.81-2.92-2.7-4.39-.437-.719-.874-1.44-1.32-2.18-.594-.988-.594-.988-1.2-2-1.04-1.73-1.04-1.73-3.11-2.57-.667-1.67-1.33-3.33-2-5-1.3-2.02-2.62-4.03-4-6z"/>
  <path fill="#C4EF58" d="M1065 430v2c-3.88 1.19-6.92 2-11 2l-1 2c-1.95.946-3.93 1.81-5.94 2.62-1.08.446-2.16.892-3.28 1.35-2.79 1.02-2.79 1.02-4.79 1.02l-1 2c-2.32 1.23-4.63 2.38-7 3.5-6.29 3.06-12.4 6.34-18.4 9.88-.739.429-1.48.857-2.24 1.3-3.78 2.04-3.78 2.04-6.32 5.33-1.56 1.07-1.56 1.07-3.44 2.12-.617.353-1.23.706-1.87 1.07-1.69.805-1.69.805-3.69.805v3l-6 3v2l2 2-3.12 1.75c-2.42 1.37-4.65 2.79-6.94 4.38-2.94 1.87-5.6 2.92-8.94 3.88.602-2.02 1.27-4.02 2-6l2-1v-3c2.08-.553 3.84-1 6-1l.312-1.81c.688-2.19.688-2.19 2.16-3.51 1.99-2.2 2.15-3.83 2.59-6.74.153-.967.307-1.93.465-2.93.156-.993.312-1.99.473-3.01.365-1.9.739-3.79 1.12-5.69.168-.829.335-1.66.508-2.51.121-.594.242-1.19.367-1.8h2l1-6-1 1-2 1c1.22-4.03 2.56-7.54 5-11h2l2 2c.681-.289 1.36-.578 2.06-.875 5.23-2 10.4-3.25 15.9-4.12l2.95-.5c8.49-1.29 17-1.9 25.5-2.31 1.12-.0651 2.24-.13 3.4-.197 6.24-.258 10.6-.0464 16.1 3.01zm-509-38c.712-.000393 1.42-.000786 2.16-.00119 33.9.0223 33.9.0223 45.3 3.19v-2l-2-1h3v2l1.81.75c2.52 1.44 3.69 2.78 5.19 5.25v3h2c2.69 5.38 4.49 10.9 4 17-1.49 1.8-1.49 1.8-3 3l-3-1c-1.67.298-3.34.638-5 1-2.27.215-4.54.402-6.81.562-1.74.126-1.74.126-3.52.254-.88.0606-1.76.121-2.67.184l2 1v2c-3.49-1.26-6.05-2.78-9-5l-2.56-1c-2.56-1.05-3.53-2.07-5.44-4-2.4-1.61-4.8-3.17-7.25-4.69-.705-.438-1.41-.877-2.14-1.33-9.57-5.88-19.5-11-29.6-16v-2c4.73-2.37 11.3-1.19 16.5-1.19z"/>
  <path fill="#C4EE59" d="M993 335v3l-3 1c-.804.825-1.61 1.65-2.44 2.5-2.59 2.53-3.3 2.71-6.56 3.5-.433.897-.433.897-.875 1.81-1.31 2.54-2.75 3.81-4.94 5.62-3.22 2.73-6.24 5.54-9.19 8.56-10 10-10 10-11.8 11.7-4.57 4.45-8.61 9.12-12.5 14.2-2.19 2.77-3.25 3.97-6.66 5.1v-2l-2-1v2c-3.63.201-5.87-.142-9-2h2l-1-2.94c-1.26-4.38-1.15-8.54-1-13.1v-4l.562-3.56c.687-3.41.687-3.41-.562-6.44 1.81-1.06 1.81-1.06 4-2l3 1c1.35-.633 2.68-1.3 4-2h3l1-3c1.85-.73 1.85-.73 4.06-1.19 1.1-.238 1.1-.238 2.22-.48.566-.11 1.13-.219 1.71-.332v-2c9.88-4.35 20-7.72 30.3-10.9.658-.209 1.32-.418 2-.633 1.89-.598 3.79-1.18 5.68-1.77 1.66-.516 1.66-.516 3.36-1.04 2.65-.617 2.65-.617 4.65.383z"/>
  <path fill="#F8FAF9" d="m763 366 3 1c.667 1.67 1.33 3.33 2 5l3 1c4.96 4.37 7.14 9.06 8.62 15.4.197.775.395 1.55.598 2.35.407 1.61.805 3.23 1.19 4.85.573 2.38 1.17 4.76 1.78 7.14.373 1.49.744 2.99 1.11 4.48.172.682.343 1.36.52 2.07 1.02 4.32 1.32 8.31 1.17 12.7l2 1v4c.226 1.56.486 3.12.77 4.67 2.43 14 3.93 28 4.98 42.1.0647.855.129 1.71.196 2.59 2.09 28 2.09 28-.946 32.6-1.94-3.35-2.49-6.37-3-10.2-.533-3.76-1.09-7.44-2-11.1-1.17-4.91-1.69-9.91-2.21-14.9-.467-4.18-1.44-7.79-2.79-11.8-.578-2.78-1.01-5.57-1.44-8.38-.258-1.61-.517-3.21-.777-4.82-.13-.805-.26-1.61-.394-2.44-1.74-10.5-3.88-21-6.39-31.4-.197-.84-.394-1.68-.598-2.55-.611-3.52-.611-3.52-2.4-6.45-.475-2.01-.903-4.04-1.31-6.06-1.15-5.5-2.36-11-3.69-16.4-.154-.658-.308-1.32-.466-1.99-1.03-4.17-2.57-7.71-4.53-11.5v-2l2-1z"/>
  <path fill="#223A24" d="M826 871c3.94 0 4.73.367 8 2v2l-1 1c.981-.0412 1.96-.0825 2.97-.125 4.36 0 8.28.992 12.5 2.12 1.1.286 1.1.286 2.22.578 1.78.466 3.57.943 5.35 1.42v1l-7 2v1c3.57.655 6.53 1.08 10.1.5 3.53-.456 6.12-.323 9.62.0625 8.85.828 17.5-.442 26.2-1.56v-1c.638-.0606 1.28-.121 1.93-.184.826-.0838 1.65-.168 2.5-.254.824-.0812 1.65-.162 2.5-.246 2.05-.106 2.05-.106 3.07-1.32 2.33-.0409 4.67-.0424 7 0l1-2 3 1v2c-10.4 2.98-20.6 5.14-31.2 6.69-.723.106-1.45.213-2.19.323-16.3 2.39-32 3.16-48.5 2.68-1.23-.0343-2.46-.0686-3.72-.104-1.15-.0443-2.3-.0886-3.49-.134-1.03-.0378-2.06-.0756-3.12-.115-2.74-.337-4.31-1.07-6.72-2.33-2.31-.449-2.31-.449-4.77-.633-.889-.0838-1.78-.168-2.7-.254-1.38-.118-1.38-.118-2.79-.238-.936-.0864-1.87-.173-2.84-.262-2.3-.212-4.61-.416-6.91-.613l-1-3h13v-2l-3-1-1 1-3-1c-1.56-.218-3.12-.404-4.69-.562-.808-.0838-1.62-.168-2.45-.254-.615-.0606-1.23-.121-1.86-.184v-2l-2-1 1-2 3.69.562c3.34.427 6.03.36 9.31-.562v2c4.13-.567 4.13-.567 8-2v2l1.75-.438c2.08-.521 4.17-1.04 6.25-1.56v2l5-1-2-1 2-3z"/>
  <path fill="#B0DB42" d="m932 486 4 2c-.42 5.32-2.52 9.23-5.04 13.8-.317.717-.634 1.43-.961 2.17l1 2c3.98-.569 6.61-1.89 10-4h2l1-2c2.65-.594 5.29-.742 8-1v4c-1.54 1.46-1.54 1.46-3.62 2.81-3 2.08-5.29 4.08-7.56 6.94-2.36 2.94-4.24 3.96-7.81 5.25-.253.548-.505 1.1-.766 1.66-1.82 3.44-4.48 5.87-7.23 8.59-.82.831-.82.831-1.66 1.68-4.09 4.07-4.09 4.07-6.34 4.07l-1 4h-2v3c-2.25 2.69-2.25 2.69-5 5h-4c.75-7.75.75-7.75 3-10 .52-1.86.969-3.74 1.38-5.62 1.08-4.58 2.41-8.46 4.65-12.6 1.54-2.84 2.73-5.82 3.97-8.8.561-1.31 1.12-2.63 1.69-3.94l1.31-3.06h2l.375-1.69c.685-2.53 1.62-4.89 2.62-7.31h2l.312-2.38c.688-2.62.688-2.62 3.69-4.62z"/>
  <path fill="#C5EF5B" d="M729 279c3.94.563 6.75 1.68 10 4v2l2 .688c3.89 1.7 7.64 3.71 11 6.31v2c.732.24 1.46.48 2.22.727 3.17 1.45 4.9 3.12 7.28 5.65 2.32 2.41 4.5 4.62 7.12 6.69 3.57 2.91 6.42 6.42 9.38 9.94l-1 2-2.31.438c-2.69.356-2.69.356-4.44 1.94-3.4 2.46-7.26 3.42-11.2 4.62v2l-6-2c-.0889-.83-.178-1.66-.27-2.52-.874-4.17-2.47-7.48-4.42-11.2-.36-.705-.72-1.41-1.09-2.14-4.88-9.46-10.3-18.9-16.9-27.2-1.32-1.87-1.32-1.87-1.32-3.87z"/>
  <path fill="#C5EE5B" d="M665 419c3.86 1.41 7.16 3.22 10.6 5.44.941.597 1.88 1.19 2.85 1.81 2.12 1.47 3.88 2.78 5.52 4.75v2l1.94.812c2.06 1.19 2.06 1.19 3.06 4.19l1.94.938c2.52 1.3 3.03 2.48 4.06 5.06h2c2.26 2.47 3.83 4.54 5 7.69.766 2.45.766 2.45 2.92 3.27 6.69 3.37 10 15.2 13.1 21.8 2.16 4.66 4.49 9.22 6.87 13.8 2.2 4.91 2.5 10.2 3.13 15.5-3.29-1.54-4.74-2.29-6-5.78-.184-1.04-.369-2.09-.559-3.16-.855-4.76-1.87-6.81-5.44-10.1v-2h-2c-2-5.75-2-5.75-2-8h-2l-.625-2.19c-1.25-3.05-1.25-3.05-4.31-5.25-3.21-2.69-4.52-4.72-6.06-8.56v-2l-2-1c-1.35-2.93-2.3-5.85-3-9h-2c-3-4.38-3-4.38-3-7l-3-1-1.25-2.12c-1.99-3.27-4.31-5.59-7.05-8.23-1.32-1.27-2.58-2.6-3.82-3.95-1.83-1.85-1.83-1.85-4.5-2.69-2.38-1-2.38-1-3.69-3.12-.227-.619-.454-1.24-.688-1.88z"/>
  <path fill="#AFDA43" d="M994 437c1 3 1 3 .293 4.95-.365.719-.73 1.44-1.11 2.18-2.6 5.56-3.79 10.9-4.61 17-.15 1.07-.299 2.14-.453 3.25-.182 1.5-.182 1.5-.367 3.02-.924 3.17-2.08 3.81-4.76 5.6l-1 3c-3.06 1.19-3.06 1.19-6 2l1 3-3 2-1 3c-5.69 1.5-10.4.335-16-1v-2c-.603-.0606-1.21-.121-1.83-.184-.799-.0838-1.6-.168-2.42-.254-.789-.0812-1.58-.162-2.39-.246-2.18-.293-4.24-.737-6.36-1.32v-2h-4c-.375-2.25-.375-2.25 0-5 2.94-2.19 2.94-2.19 6-4l1-2h3l.5 2.62c2.09 4.69 4.93 7.09 9.5 9.38 3.18.744 5.88 1 9 0 3.91-3.27 5.99-6.47 8-11.1.499-1.14.998-2.27 1.51-3.44.737-1.7.737-1.7 1.49-3.43.935-2.02 1.87-4.04 2.81-6.06 1.12-2.42 2.11-4.59 2.7-7.18.161-.579.322-1.16.488-1.75l2-1 2-3 1.56-2.06c1.48-1.88 1.48-1.88 2.44-3.94z"/>
  <path fill="#2B422C" d="M672 629c2 .346 4 .681 6 1l-3 2h5l-1-2c2.41-1.2 3.95-1.1 6.62-1.06 1.23.0135 1.23.0135 2.48.0273.94.0174.94.0174 1.9.0352v2l3 1-6 3-1 2 3 1c-6.39-.33-11.3-.786-17-4-2.32-.775-4.64-1.39-7-2 1.77 6.65 3.64 13.3 5.56 19.9.21.725.419 1.45.635 2.2.855 2.91 1.73 5.76 2.9 8.57 1.4 3.64 1.73 7.38 2.25 11.2.613 2.91 1.58 5.31 2.8 8.01 1.91 4.73 3.13 9.71 4.48 14.6.312 1.1.624 2.2.945 3.34 1.5 5.38 2.84 10.6 3.43 16.2h2l1 7h-2c-1.88-2.82-2.39-4.17-3-7.38-.7-3.4-1.6-6.44-3-9.62l-1-3-2-1v-2c-.316-1.67-.652-3.34-1-5l-.375-2.38c-.651-2.74-1.72-5.11-2.87-7.67-1.11-2.86-1.68-5.78-2.3-8.77-.658-3.11-1.57-6.13-2.46-9.18-.238-.915-.477-1.83-.723-2.77-.257-.982-.513-1.96-.777-2.98-.237-.923-.474-1.85-.719-2.8-.726-2.67-.726-2.67-2.78-5.45-.344-2.02-.344-2.02-.5-4.25-.268-3.04-.708-5.77-1.62-8.69-.875-3.06-.875-3.06.125-5.06h-2v-5l-3-1c4.51-1.5 8.47-1.27 13 0z"/>
  <path fill="#203822" d="M650 603c5.7 1.67 10.5 4.2 15.3 7.69 3.46 1.69 6.57 1.81 10.4 2 2.3.309 2.3.309 5.3 2.31v2l2.88.188L687 618c1.38 2.56 1.38 2.56 2 5-1.46.336-2.92.669-4.38 1-.812.186-1.62.371-2.46.562C680 625 680 625 678 625l-1 3c-2.91.166-4.79.0882-7.5-1.06-3-1.12-4.44-.644-7.5.0625-2.31-.438-2.31-.438-4-1l-1-5c1.09.0412 2.19.0825 3.31.125 3.78.196 3.78.196 6.69-2.12l2 2c3.1-.322 3.1-.322 6-1v2h2v-2c-1.26-.33-2.52-.66-3.81-1-.708-.186-1.42-.371-2.14-.562-2.18-.542-2.18-.542-5.04-.438v-2c-2.21-1.86-2.21-1.86-5-3-2.28.559-2.28.559-4 2l-1 2h-3v-2l-3-1 1-3 3-1-6-2v-2h2v-3z"/>
  <path fill="#C4EF57" d="M908 423c.985.00902 1.97.018 2.98.0273 1.12.0174 1.12.0174 2.27.0352 0 5.04-1.4 6.78-4 11h-2l.438 3.94c.0432 5.45-2.33 8.34-5.71 12.4-1.73 1.65-1.73 1.65-3.73 1.65 0-3 0-3 2-5-.65-.496-1.3-.993-1.97-1.5-6.84-5.56-6.84-5.56-7.78-10.2.995-4.39 2.34-7.04 5.69-10.1 3.84-2.33 7.38-2.37 11.8-2.31z"/>
  <path fill="#2C432E" d="M1149 443c2 3 2.24 3.75 2.44 7.12.376 4.16 1.41 7.66 2.8 11.6 4.14 12.6 5 26.6 6.32 39.7.129 1.27.259 2.55.392 3.86 1.67 16.7 2.92 33.1 1.05 49.8l-2-1c.0116-.736.0232-1.47.0352-2.23.00902-.976.018-1.95.0273-2.96.0116-.963.0232-1.93.0352-2.92-.0135-2.81-.0135-2.81-.573-5.2-.568-2.92-.819-5.75-1.03-8.71-.082-1.16-.164-2.32-.249-3.52-.124-1.84-.124-1.84-.251-3.71-.0869-1.25-.174-2.5-.263-3.78-.642-9.32-1.23-18.6-1.74-28l-2-1 .562-1.69c.521-2.75.0104-4.58-.562-7.31-.222-6.56-.222-6.56 1-9h-2v-7l-2-1c-1.84-7.55-2.31-15.3-2-23z"/>
  <path fill="#263D27" d="M471 467h1c-.394 8.7-1.41 16.9-3.28 25.4-2.48 13.8-1.88 28.3-1.85 42.3.00537 3.31.0000198 6.63-.00635 9.94-.00746 16.8.774 32.8 3.94 49.3.182 1.01.365 2.02.553 3.06.172.9.343 1.8.52 2.73.041.723.082 1.45.124 2.19l-2 2c-2.27-5.54-3.6-10.5-4.19-16.4-.0797-.741-.159-1.48-.241-2.25-1.33-13-1.33-13 .429-18.3l-2-1c-2.16-5.88-2.18-12.2-2.19-18.4-.000806-.698-.00161-1.4-.00244-2.12.0337-3.08.21-5.51 1.19-8.45.0578-3.37.0217-6.73-.0391-10.1-.0388-3.48.0824-6.54 1.04-9.89.0429-1.35.0405-2.71 0-4.06-.0777-7.9.803-15.5 2.46-23.3.622-3.11 1.08-6.23 1.54-9.36.684-4.59 1.56-8.9 3-13.3z"/>
  <path fill="#283F29" d="m732 557 .875 1.88c1.06 2.26 1.06 2.26 3.12 4.12.547 1.89.547 1.89.965 4.18.159.84.318 1.68.481 2.55.162.894.324 1.79.491 2.71 1.06 5.62 2.13 11.1 3.81 16.6 1.81 6.34 2.81 12.9-.312 18.9-3.91 3.2-7.61 4.78-12.6 5.38-3.14-.418-4.51-1.25-6.81-3.38l8-1v-2c1.29-1.37 2.62-2.71 4-4l-1-2 5-1c.215-6.13-.106-11.4-3.06-17-1.36-2.91-1.55-5.83-1.94-9-.173-.768-.345-1.54-.523-2.33-.543-3.04-.573-5.89-.539-8.98.00902-1.07.018-2.14.0273-3.24.0116-.808.0232-1.62.0352-2.45z"/>
  <path fill="#203822" d="M925 215c1.51.0174 1.51.0174 3.06.0352 1.01.00902 2.02.018 3.07.0273 1.17.0174 1.17.0174 2.37.0352l1 4h2v2l3-.188c4.47-.0274 7.91 1.47 12 3.19v2h7l-1-2-3 1v-2l-2-1c1-1 1-1 3.81-1.25 3.54.277 4.79.674 7.19 3.25 1.16 3.16 1.13 4.6.0625 7.81l-1.06 2.19c-2.88.125-2.88.125-6 0l-2-2c-2.2-.677-2.2-.677-4.62-1.12-1.23-.251-1.23-.251-2.48-.508-.626-.121-1.25-.242-1.9-.367l1-3h-8v-2c-4.46-.99-4.46-.99-9-2l2-4c-2.79-1.03-3.87-1.05-6.75-.0625l-2.25 1.06c-.562-1.94-.562-1.94-1-4 1-1 1-1 3.5-1.1zm-26 400-1 3c-1.89.695-1.89.695-4.25 1.12-.811.156-1.62.312-2.46.473-.757.133-1.51.266-2.29.402-3.62.66-3.62.66-7 2-2.37.23-4.75.411-7.12.562-1.28.0838-2.56.168-3.88.254-.987.0606-1.97.121-2.99.184v1c-.655.049-1.31.098-1.98.148-4.98.408-9.75.99-14.6 2.04-7.88 1.42-15.5.0184-23.4-1.19l1-3c1.92.0249 1.92.0249 3.89.0503 5.01-.00208 9.94-.377 14.9-.855.895-.084 1.79-.168 2.71-.255 1.87-.178 3.74-.358 5.62-.54 2.88-.278 5.76-.541 8.64-.803 1.82-.175 3.65-.351 5.47-.527.863-.0772 1.73-.154 2.62-.234 2.05-.207 4.1-.512 6.13-.836l1-2c6.18-1.3 12.7-1.1 19-1z"/>
  <path fill="#C3EC5C" d="M728 506c2.37 2.37 2.46 3.48 3.04 6.72.17.932.339 1.86.514 2.82.17.976.339 1.95.514 2.96.342 1.93.687 3.85 1.04 5.78.15.857.299 1.71.453 2.6.364 2.16.364 2.16 1.45 4.12v7l1 2c.084 1.59.107 3.19.0977 4.79-.00322.941-.00645 1.88-.00977 2.85-.00838.985-.0168 1.97-.0254 2.98-.00451.993-.00902 1.99-.0137 3.01-.0118 2.46-.0283 4.91-.0488 7.37h-3l-1-9h2v-4l-2-1c-.342-1.67-.674-3.33-1-5l-2-2c-.375-2.04-.504-4.05-.656-6.12-.204-2.11-.204-2.11-2.34-3.88-.687-8.18-.219-16.1 2-24z"/>
  <path fill="#213822" d="M788 490c2.54 2.54 2.41 3.85 2.78 7.38.12 1.07.24 2.13.363 3.23l.711 6.78c.12 1.07.24 2.13.363 3.23.102.982.205 1.96.311 2.98.273 2.57.273 2.57 2.47 4.4l1-10 4 1c1.3 4.95 2 8.88 2 14l2 1v2c-2.5 1.62-2.5 1.62-5 3v-2h-2l-1 5h-4v-10l-1 2h-3c-.144-.949-.289-1.9-.438-2.88-.392-3.02-.392-3.02-1.56-5.12h2c1.43-5.54 1.82-11.6 0-17-.0674-1.56-.0851-3.13-.0625-4.69.00902-.808.018-1.62.0273-2.45.0174-.922.0174-.922.0352-1.86z"/>
  <path fill="#ADD841" d="M994 437c1 3 1 3 .293 4.95-.365.719-.73 1.44-1.11 2.18-2.6 5.56-3.79 10.9-4.61 17-.15 1.07-.299 2.14-.453 3.25-.121.998-.242 2-.367 3.02-.924 3.17-2.08 3.81-4.76 5.6l-1 3c-3.56 1.19-3.56 1.19-7 2 1.18-6.41 3.1-12 5.7-18 1.59-3.68 3-7.41 4.41-11.2.895-1.86.895-1.86 2.89-2.86l2-3 1.56-2.06c1.48-1.88 1.48-1.88 2.44-3.94z"/>
  <path fill="#273E28" d="M705 561c-3.53 2.35-6.59 2.66-10.7 3.12-.702.0864-1.4.173-2.13.262-1.73.212-3.46.413-5.19.613v2c-.808.182-1.62.364-2.45.551-1.07.251-2.14.503-3.24.762-1.58.365-1.58.365-3.2.738-3.11.947-5.36 2.27-8.11 3.95-2.46.73-2.46.73-4.81 1.19-.79.159-1.58.317-2.39.48-.592.11-1.18.219-1.79.332v3c-3 2-3 2-6 2v3l-3 1-1 7c-2-3-2-3-2-7l-2-2 1-2 3 1c1.46-2.65 2-3.89 2-7l3-2c1.34.322 2.67.658 4 1 2.01-.271 4.01-.594 6-1v-2h5v-2h5v-2c4.18-1.59 7.53-2.21 12-2v-2c6.4-2.39 10.6-3.66 17-1z"/>
  <path fill="#193119" d="M733 631h4v2l3.44-.0625C744 633 744 633 745 633.9975c2 .0408 4 .0425 6 0v-2c3.46-.495 3.46-.495 7-1v2h2v2l3-1c2.34.278 4.68.605 7 1v2c-6.53.9-12.9 1.08-19.5.75-.694-.0263-1.39-.0527-2.1-.0798-3-.186-4.96-.328-7.37-2.22-.51-.719-.51-.719-1.03-1.45v2c-4.42.805-8.75 1.14-13.2 1.25-1.52.0387-1.52.0387-3.08.0781-2.67-.328-2.67-.328-4.53-1.84-.376-.49-.753-.98-1.14-1.48 2-2 2-2 5.04-2.2 1.78.0348 1.78.0348 3.59.0703 1.78.0271 1.78.0271 3.6.0547.915.0232 1.83.0464 2.77.0703v-1z"/>
  <path fill="#2B422D" d="m672 660 2 1c.721 3.24 1.26 6.47 1.77 9.75.68 4.05 1.66 7.45 3.39 11.2 1.93 4.69 3.12 9.66 4.47 14.5.312 1.1.624 2.2.945 3.34 1.5 5.38 2.84 10.6 3.43 16.2h2l1 7h-2c-1.88-2.82-2.39-4.17-3-7.38-.7-3.4-1.6-6.44-3-9.62l-1-3-2-1v-2c-.316-1.67-.652-3.34-1-5l-.375-2.38c-.651-2.74-1.72-5.11-2.87-7.67-1.11-2.85-1.68-5.76-2.29-8.75-.662-3.11-1.59-6.15-2.47-9.2-.75-2.81-.75-2.81-1-5l2-2z"/>
  <path fill="#253D27" d="M949 298c3.3 4.65 4.04 8.68 4.25 14.3-1.45 4.76-4.03 7.97-7.05 11.9-2.77 3.73-4.96 7.67-7.08 11.8-1.01-3.15-1.11-3.75.312-6.94l1.69-3.06c.673-1.66 1.34-3.33 2-5 1.13-2.35 2.34-4.6 3.62-6.88 1.8-4.1 1.94-7.08.75-11.4-2.76-3.51-7.06-3.7-11.2-4.38l-3.12-.375v-1c5.7-1.42 10.9-2.46 15.9 1z"/>
  <path fill="#2A412C" d="M1013 468c4.83 2.25 7.92 5.1 10 10 .23 2.29.23 2.29.188 4.62-.00645.776-.0129 1.55-.0195 2.35-.168 2.02-.168 2.02-1.17 4.02h-2c-.268.928-.536 1.86-.812 2.81-1.1 2.95-1.81 4.24-4.19 6.19.473-2.91.959-5.8 1.56-8.69.53-2.41.53-2.41.438-5.31.457-1.58.961-3.14 1.5-4.69.278-.808.557-1.62.844-2.45.217-.615.433-1.23.656-1.86l-2.31.125c-2.69-.125-2.69-.125-5.69-2.12-2.68-.831-5.2-1.26-8-1-1.38 1.63-2.71 3.3-4 5-3.75.312-3.75.312-7 0l1.94-.812c2.39-1.07 2.39-1.07 3.06-4.19 5.23-3.73 8.61-4.72 15-4z"/>
  <path fill="#C0EB54" d="M794 470c2.3 3.44 2.54 5.94 3 10h2c.126 7.54.126 7.54-.477 9.76-.646 2.77-.812 5.45-.988 8.29-.078 1.16-.156 2.31-.236 3.5-.158 2.44-.312 4.88-.461 7.32-.0793 1.15-.159 2.3-.24 3.49-.067 1.06-.134 2.12-.203 3.21-.13.804-.261 1.61-.395 2.44l-2 1c-2.15-3.22-2.41-4.78-2.75-8.56-.098-.971-.196-1.94-.297-2.94.0469-2.5.0469-2.5 2.05-4.5l1 3c.151-9.04-.191-18-.732-27-.0484-.876-.0968-1.75-.147-2.65-.0471-.787-.0943-1.57-.143-2.38.0217-1.95.0217-1.95 1.02-3.95z"/>
  <path fill="#203822" d="m828 624 1 3 4-1v2c-10.6 1.37-20.9 2.26-31.6 1.81-.897-.0302-1.79-.0604-2.72-.0916-.836-.0458-1.67-.0917-2.53-.139-1.11-.0584-1.11-.0584-2.23-.118-2.41-.574-3.37-1.6-4.95-3.46 3-1 5.23-1.2 8.38-1.32 1.6-.0628 1.6-.0628 3.24-.127 1.12-.0393 2.24-.0786 3.39-.119 1.09-.0432 2.17-.0864 3.29-.131 6.91-.26 13.8-.361 20.7-.307z"/>
  <path fill="#263E28" d="M845 862c.874.00141 1.75.00283 2.65.00429 2.75.00553 5.5.0181 8.25.0309 1.88.00502 3.76.00959 5.64.0137 4.58.0109 9.15.0282 13.7.0488l-1 2c-2.03.379-2.03.379-4.5.562-3.05.0167-3.05.0167-5.5 1.44-2.88.0887-5.74.115-8.63.0977-1.3-.00212-1.3-.00212-2.62-.00429-2.77-.00562-5.54-.0182-8.31-.0309-1.87-.00501-3.75-.00958-5.62-.0137-4.6-.0111-9.21-.0283-13.8-.0488v-3c6.6-.77 13.1-1.14 19.7-1.1z"/>
  <path fill="#253C27" d="M471 467h1c-.33 7.28-.956 14.2-2.47 21.3-1.8 9.04-2.27 18-2.65 27.2-.109 2.39-.221 4.78-.337 7.17-.07 1.47-.136 2.93-.197 4.4-.197 4.36-.663 8.57-1.34 12.9-2.49-3.73-2.26-6.63-2.19-10.9.000645-.716.00129-1.43.00195-2.17.0289-3.46.257-6.56 1.19-9.89.0429-1.35.0405-2.71 0-4.06-.0777-7.9.803-15.5 2.46-23.3.622-3.11 1.08-6.23 1.54-9.36.684-4.59 1.56-8.9 3-13.3z"/>
  <path fill="#29402A" d="M440 493h2c.243 15.2-.117 30-2 45l-3 1c.902-25 .902-25 1.5-36.5.0354-.74.0707-1.48.107-2.24.275-5.02.275-5.02 1.39-7.26z"/>
  <path fill="#273E28" d="M961 540h3v10h2v2h3v3h11l1-3h2l4-7h3c-1.5 4.49-3.82 8.49-7 12-5.46 1.82-11 1.66-16.4-.125-3.27-2.39-4.28-4.03-5.56-7.88-.222-3.02-.181-5.98 0-9z"/>
  <path fill="#243B25" d="m899 615-1 3c-1.89.695-1.89.695-4.25 1.12-.811.156-1.62.312-2.46.473-.757.133-1.51.266-2.29.402-3.62.66-3.62.66-7 2-1.67.0843-3.34.107-5.01.0977-.986-.00322-1.97-.00645-2.99-.00977-1.03-.00838-2.07-.0168-3.13-.0254-1.56-.00677-1.56-.00677-3.15-.0137-2.57-.0118-5.15-.0283-7.72-.0488v-2c.855-.0752.855-.0752 1.73-.152 2.57-.231 5.14-.477 7.71-.723.898-.0786 1.8-.157 2.72-.238.854-.0838 1.71-.168 2.59-.254 1.19-.11 1.19-.11 2.4-.222.613-.136 1.23-.271 1.86-.411l1-2c6.18-1.3 12.7-1.1 19-1z"/>
  <path fill="#2B422C" d="M746 204c1.56.00786 1.56.00786 3.16.0159 1.12.00322 2.25.00645 3.41.00977 1.18.00838 2.37.0168 3.59.0254 1.19.00451 2.38.00902 3.6.0137 2.95.0118 5.89.0283 8.84.0488v1c-1.74.211-1.74.211-3.52.427-4.31.526-8.62 1.06-12.9 1.6-1.86.231-3.73.46-5.59.687-2.68.326-5.36.661-8.04.998-.832.099-1.66.198-2.52.3-.781.1-1.56.2-2.37.303-.684.0844-1.37.169-2.07.256-2.22.486-3.94 1.41-5.96 2.43-2.24.287-4.49.49-6.75.625-1.17.0748-2.34.15-3.55.227-.892.049-1.78.098-2.7.148v-1l2.25-.312c2.77-.482 2.77-.482 4.57-2.19 2.72-1.87 4.6-1.96 7.87-2.12 3.47.0958 3.47.0958 6.31-1.38 2.32-.321 4.64-.512 6.97-.719 2.57-.355 2.73-1.27 5.44-1.39zm117 379h2c-.945 16.5-.945 16.5-5 23.4-3.66 3.2-5.98 3.47-10.7 3.81-2.3-.188-2.3-.188-5.3-2.19l7-2v-1h6l-.688-3.25c-.312-3.75-.312-3.75 1-6.19 1.69-1.56 1.69-1.56 3.69-1.56l2-11z"/>
  <path fill="#19311A" d="M918 214c3.16 1.37 3.99 1.99 6 5l2.25-1.19c.908-.268 1.82-.536 2.75-.812 2.31 1.38 2.31 1.38 4 3l-3 1-1 2 2 1c-1.79.222-3.58.427-5.38.625-.998.116-2 .232-3.02.352-.859.00773-1.72.0155-2.6.0234l-4-4c-3.38-1.6-5.17-2-9-2v-2c1.89.0928 1.89.0928 3.81.188 3.36.0488 3.36.0488 6.19-1.69l1-1.5z"/>
  <path fill="#193119" d="m852 200 2.61.969c3.34 1.02 6.16 1.36 9.64 1.53 5.73.362 11.2 1.2 16.8 2.5-1.31 2.06-1.31 2.06-4 4-3.73.116-7.32-.423-11-1-1.13-.144-2.27-.289-3.44-.438-2.56-.562-2.56-.562-4.36-1.56-2.7-1.23-5-1.42-7.95-1.63-.985-.0748-1.97-.15-2.98-.227-.748-.049-1.5-.098-2.27-.148v-2l-2-1h8l1-1z"/>
  <path fill="#203822" d="m806 867 3.31.5c3.56.567 3.56.567 6.69.5 1.56.151 3.13.319 4.69.5.808.0928 1.62.186 2.45.281.615.0722 1.23.144 1.86.219v5l5 1v1c-9.41.185-9.41.185-14-1v-2h-2v-2h-10l2-4z"/>
  <path fill="#29402B" d="M788 490c2.53 2.53 2.42 3.83 2.82 7.34.124 1.06.249 2.13.377 3.22.122 1.11.244 2.23.369 3.38.249 2.2.5 4.39.754 6.59.162 1.47.162 1.47.326 2.96.298 2.63.298 2.63 1.36 5.51h2v2l-1.94.375-2.06.625-1 2h-3c-.144-.949-.289-1.9-.438-2.88-.392-3.02-.392-3.02-1.56-5.12h2c1.43-5.54 1.82-11.6 0-17-.0674-1.56-.0851-3.13-.0625-4.69.00902-.808.018-1.62.0273-2.45.0174-.922.0174-.922.0352-1.86z"/>
  <path fill="#283F28" d="M588 349c14.1-.211 28-.366 42 2v2c-.926-.0722-1.85-.144-2.8-.219-13.4-.955-26.8-.882-40.2-.781l1-3z"/>
  <path fill="#2D432E" d="M733 318c1.2.18 2.39.361 3.62.547 3.01.626 5.58 1.45 8.38 2.7l-2 4c-.928-.33-1.86-.66-2.81-1-3.39-1.01-6.35-1.02-9.88-.875-4.98.123-4.98.123-8-2.12-.433-.66-.866-1.32-1.31-2 4.32-2.19 7.27-2.01 12-1.25z"/>
  <path fill="#2A412B" d="m679 689 3 1c.891 2.18.891 2.18 1.61 5.02.261 1.02.522 2.04.791 3.09.261 1.08.522 2.15.791 3.26.273 1.07.545 2.13.826 3.23 1.99 7.91 1.99 7.91 1.99 11.4h2l1 7h-2c-1.88-2.82-2.39-4.17-3-7.38-.7-3.4-1.6-6.44-3-9.62l-1-3-2-1v-2l-.5-2.25c-.54-2.97-.57-5.74-.5-8.75z"/>
  <path fill="#2B412C" d="M917 634h8v1c-2 .667-4 1.33-6 2-.892.322-1.78.645-2.7.977-4.46 1.38-8.95 2.11-13.6 2.88-3.6.633-6.52 1.46-9.75 3.14-2.36.414-2.36.414-4.75.625-.799.0748-1.6.15-2.42.227-.905.0735-.905.0735-1.83.148v-3l6-1v-1c1.07-.0909 1.07-.0909 2.15-.184 1.38-.126 1.38-.126 2.79-.254.917-.0812 1.83-.162 2.78-.246 2.25-.0769 2.25-.0769 3.29-1.32 1.51-.232 3.04-.412 4.56-.562.826-.0838 1.65-.168 2.5-.254.957-.0909.957-.0909 1.93-.184v-1h7v-2z"/>
  <path fill="#283F29" d="M686 629c1.23.0135 1.23.0135 2.48.0273.94.0174.94.0174 1.9.0352v2l3 1-6 3-1 2 3 1-11-1-1-4 3-1-1-2c2.41-1.2 3.95-1.1 6.62-1.06z"/>
  <path fill="#2C432D" d="M680 224c-2.33 3.49-3.09 3.57-7 4.56-3.92.953-3.92.953-7 3.44-1.42.532-2.86 1.01-4.31 1.44-2.87.898-4.97 1.73-7.56 3.31l-2.12 1.25-3-1c1.86-3.29 2.86-3.96 6.56-5.12 1.13-.289 2.27-.578 3.44-.875l2-2c1.44-.555 2.9-1.05 4.38-1.5 2.37-.729 4.51-1.44 6.71-2.59 2.67-1.27 5-1.05 7.91-.914z"/>
  <path fill="#2F4530" d="M1149 443c2 3 2.24 3.75 2.44 7.12.375 4.15 1.41 7.65 2.8 11.6 2.27 6.9 3.07 14.1 3.76 21.3-1.58-3.01-2.44-5.64-3-9h-2v-7l-2-1c-1.84-7.55-2.31-15.3-2-23z"/>
  <path fill="#193119" d="M880 208c6.62-.125 6.62-.125 10 1 1.39.0667 2.79.0854 4.19.0625L898 209l-1 2c3.01.934 3.87 1.04 7 0l3 4c-3.66.749-6.42 1.24-10 0v-2c-.562.174-1.12.348-1.7.527-2.54.523-4.48.375-7.05.0352-1.2-.153-1.2-.153-2.42-.309-.603-.0838-1.21-.168-1.83-.254l1-2-5-2v-1z"/>
  <path fill="#304530" d="m1118 432 2 1v5h2v5h2c.205 1.07.41 2.14.621 3.25.272 1.4.544 2.79.816 4.19.135.707.269 1.41.408 2.14.438 3.5.438 3.5 2.15 6.42.0409 2.33.0424 4.67 0 7h-2c-1.15-4.35-2.3-8.71-3.44-13.1-.325-1.23-.651-2.46-.986-3.72-.313-1.2-.625-2.39-.947-3.62-.432-1.64-.432-1.64-.873-3.32-.788-3.41-1.31-6.8-1.76-10.3z"/>
  <path fill="#193119" d="m661 612 1 2c2.53.656 2.53.656 5 1v2h5v2l3-1 3 2-1 2h-2v-2l-8 2-1-2-3 2-3-2 2-3-5-2 4-3z"/>
  <path fill="#2A412B" d="m1020 476 3 2c.328 2.09.328 2.09.25 4.5-.0155.794-.0309 1.59-.0469 2.41-.203 2.09-.203 2.09-1.2 4.09h-2c-.268.928-.536 1.86-.812 2.81-1.1 2.95-1.81 4.24-4.19 6.19.473-2.91.959-5.8 1.56-8.69.53-2.41.53-2.41.438-5.31.453-1.41.957-2.81 1.5-4.19.278-.715.557-1.43.844-2.17.325-.814.325-.814.656-1.64z"/>
  <path fill="#263D27" d="M666 603c5.22.533 9.23 1.86 14 4 2.39.751 4.77 1.47 7.18 2.16.601.278 1.2.557 1.82.844l1 3c-3.99.181-6.56.0632-10-2-3.52-1.94-7.12-2.96-11-4v-2h-3v-2zm150-38h1c.115 9.66-.0196 19.3-.438 28.9-.0392.965-.0785 1.93-.119 2.92-.042.9-.084 1.8-.127 2.73-.0367.803-.0733 1.61-.111 2.43-.205 1.98-.205 1.98-1.21 3.98h-2l-1 3-2-2 2-2.5c2.9-5.06 2.23-10.4 2.08-16.1-.12-4.62.0816-9.2.359-13.8.0396-.731.0791-1.46.12-2.22.316-5.16.316-5.16 1.44-7.41z"/>
  <path fill="#213923" d="M440 537h1l1 22h-2v4h-2c-.0579-3.96-.0935-7.92-.125-11.9-.0168-1.13-.0335-2.26-.0508-3.42-.00645-1.08-.0129-2.15-.0195-3.26-.0105-.995-.0209-1.99-.0317-3.02.227-2.43.227-2.43 2.23-4.43z"/>
  <path fill="#273E29" d="m718 323 2 2-.5 2.19c-.663 3.73.368 6.23 1.5 9.81.363 1.99.706 3.99 1 6-3.61-1.2-4.45-2.75-6.21-6.03-1.64-4.1-1.37-8.87.211-13l2-1zm0 2 1 2z"/>
  <path fill="#29402A" d="M1159 559c2 2 2 2 2.08 4.62-.0815 1.09-.163 2.19-.247 3.31-.0877 1.21-.175 2.41-.266 3.66-.103 1.27-.206 2.54-.312 3.85-.0877 1.23-.175 2.47-.266 3.74-.562 7.38-1.48 14.6-2.98 21.8h-1c-.157-7.72.325-15.3 1-23h2c-.0838-.713-.168-1.43-.254-2.16-.588-5.53-.838-10.4.254-15.8z"/>
  <path fill="#2E442F" d="m633 376 1 3c1.2-.0412 2.39-.0825 3.62-.125 5.83.0103 9.8 1.58 14.4 5.12l2.69 1 2.31 1 1 3c-3.4-1.06-6.01-2.01-9-4-1.63-.393-3.28-.721-4.94-1-2.64-.445-4.75-.838-7.13-2.06-2.18-1.23-2.18-1.23-5.93-.938l2-5z"/>
  <path fill="#193119" d="M858 191v1l3.31.312c3.54.661 4.62.89 6.69 3.69-4.74 1.46-8.88.476-13.7-.312-.88-.131-1.76-.262-2.67-.396-.836-.133-1.67-.267-2.53-.404-.765-.122-1.53-.243-2.32-.368-.592-.171-1.18-.342-1.79-.518l-1-2c4.67-1.21 9.21-1.09 14-1z"/>
  <path fill="#243B25" d="M921 306c-1.45 1.01-2.91 2-4.38 3-1.22.835-1.22.835-2.46 1.69C912 312 912 312 910 312v2h-5c1-3 1-3 3.94-4.56 1.01-.474 2.02-.949 3.06-1.44l2-2c3.01-1.07 3.85-1.05 7 0zm-16 8c-.188 1.88-.188 1.88-1 4-2.56 1.25-2.56 1.25-5 2l-1-2c3.62-4 3.62-4 7-4z"/>
  <path fill="#273E28" d="M650 836c14 4.82 14 4.82 18 10l-1 3c-2.44-.812-2.44-.812-5-2l-1-3-2.25-.375c-4.77-1.08-7.02-2.53-9.75-6.62l1-1z"/>
  <path fill="#2B422C" d="M661 714c3.03 2.49 3.71 4.8 4.62 8.56.906 3.82.906 3.82 2.38 7.44.134 2.67.0432 5.32 0 8h-2c-1.03-3.43-2.05-6.87-3.06-10.3-.295-.976-.589-1.95-.893-2.96-.274-.938-.548-1.88-.83-2.84-.257-.864-.513-1.73-.778-2.62-.437-2.27-.437-2.27.563-5.27z"/>
  <path fill="#2E442F" d="m1133 503 3 1v45h-1v-35h-2v-11z"/>
  <path fill="#203822" d="M808 374c3.38 3.11 5.8 5.51 7 10 .125 3.31.125 3.31 0 6h-1c-.182-.638-.364-1.28-.551-1.93-.251-.826-.503-1.65-.762-2.5-.365-1.24-.365-1.24-.738-2.5-.47-1.02-.47-1.02-.949-2.07l-3-1-1 2h-2v3l2 1-5 4v-10h4l2-6z"/>
  <path fill="#2E4530" d="m892 858 1 2c-1.8 2.27-2.74 2.95-5.63 3.51-.968.058-1.94.116-2.93.176-1.46.0986-1.46.0986-2.94.199-1.5.068-3 .113-4.5.113l1-4c.742-.144 1.48-.289 2.25-.438 1.59-.326 3.18-.684 4.75-1.12 2.37-.519 4.58-.505 7-.438z"/>
  <path fill="#3C503B" d="M829 622h25c-4.05 4.05-11.5 3.05-17 3.07-3-.00496-6-.0303-9.01-.0659l1-3z"/>
  <path fill="#BCC6BD" d="M827 622v3h-34v-1c4.35-.338 8.71-.669 13.1-1 1.23-.0954 2.46-.191 3.72-.289 5.75-.434 11.4-.848 17.2-.711z"/>
  <path fill="#273E28" d="m899 615-1 3c-1.93.695-1.93.695-4.31 1.12-1.17.22-1.17.22-2.36.445-1.15.213-1.15.213-2.32.43-.7.233-1.4.467-2.12.707-.62.0967-1.24.193-1.88.293-2.75-2.44-2.75-2.44-5-5 6.37-.745 12.6-1.1 19-1z"/>
  <path fill="#BCC7B8" d="m795 499 2 2c-.0175 2.92-.139 5.72-.375 8.62-.0567.802-.113 1.6-.172 2.43-.142 1.98-.296 3.96-.453 5.95l-2 1c-2.15-3.22-2.41-4.78-2.75-8.56-.098-.971-.196-1.94-.297-2.94.0469-2.5.0469-2.5 2.05-4.5l1 3 1-7z"/>
  <path fill="#D4E3B4" d="M988 475c1.05.268 2.1.536 3.19.812-2.95 3.44-6.01 5.16-10 7.05-2.17 1.01-2.17 1.01-4.84 2.77l-2.12 1.19-2-1c2-3 2-3 4.31-4.38 2.86-1.54 2.86-1.54 5.06-4.38 2.62-2.25 2.62-2.25 6.44-2.06z"/>
  <path fill="#283F29" d="M882 811h2c-.0232 1.04-.0464 2.07-.0703 3.14-.0188 1.37-.037 2.74-.0547 4.11-.0168.682-.0335 1.36-.0508 2.07-.0361 3.72-.0123 6.59 2.18 9.68l2 1-1 3v-2l-1.88-.875c-2.12-1.12-2.12-1.12-4.12-3.12-.23-2.9-.23-2.9-.188-6.38.00645-1.14.0129-2.28.0195-3.46.137-2.58.413-4.71 1.17-7.16z"/>
  <path fill="#2B422C" d="M742 827c3.67 1.61 6.49 3.89 9.56 6.44.95.782 1.9 1.56 2.88 2.37 1.95 1.67 3.79 3.34 5.56 5.19-1.77.676-1.77.676-4 1-1.92-1.14-1.92-1.14-3.75-2.81-.614-.543-1.23-1.09-1.86-1.64-1.39-1.54-1.39-1.54-1.39-3.54l-5-2v-2h-2v-3z"/>
  <path fill="#374C38" d="M705 561c-3.53 2.35-6.59 2.66-10.7 3.12-.702.0864-1.4.173-2.13.262-1.73.212-3.46.413-5.19.613v2l-6 1c4.75-4 4.75-4 7-4v-2c6.4-2.39 10.6-3.66 17-1z"/>
  <path fill="#304630" d="M625 577h3c.0823 3.04-.0239 5.07-1 8-.222 1.89-.406 3.79-.562 5.69-.126 1.49-.126 1.49-.254 3.01-.0606.759-.121 1.52-.184 2.3h-2c-2.87-5.75-.696-13.2 1-19z"/>
  <path fill="#2E442F" d="m912 878 4 1v2c-2.37.676-4.75 1.34-7.12 2l-2.02.578c-4.06 1.11-7.66 1.63-11.9 1.42v-3c.957-.0909.957-.0909 1.93-.184 1.24-.126 1.24-.126 2.5-.254 1.24-.122 1.24-.122 2.5-.246 2.05-.106 2.05-.106 3.07-1.32 2.33-.0409 4.67-.0424 7 0v-2z"/>
  <path fill="#B9C3BB" d="M816 203c3.1-.0871 6.21-.14 9.31-.188.881-.0251 1.76-.0503 2.67-.0762 1.27-.0145 1.27-.0145 2.57-.0293 1.17-.0236 1.17-.0236 2.36-.0476 2.08.341 2.08.341 5.08 3.34h-22v-3z"/>
  <path fill="#B1DC43" d="M727 536c3.47 1.74 4.6 5.51 6 9 .546 2.37.797 4.57 1 7h-3c-.677-1.73-1.34-3.46-2-5.19-.557-1.44-.557-1.44-1.12-2.92-.851-2.82-1.05-4.98-.875-7.89z"/>
  <path fill="#D7E8AC" d="M906 437c1.43 2.87 1 3.93 0 7-1.8 2.83-3.7 5.55-6 8h-2c0-3 0-3 2-5l-2-3 1.75-.688c2.82-1.64 4.33-3.71 6.25-6.31z"/>
  <path fill="#253D27" d="M666 646c3.83 2.68 4.47 5.35 5.25 9.75.265 1.75.52 3.5.75 5.25h-3c-1.62-4.62-2.95-9.22-4-14l1-1z"/>
  <path fill="#869385" d="M761 622h20l1 3c-2.94.0809-5.87.14-8.81.188-.833.0251-1.67.0503-2.53.0762-1.2.0145-1.2.0145-2.43.0293-1.11.0236-1.11.0236-2.24.0476-1.99-.341-1.99-.341-4.99-3.34z"/>
  <path fill="#203822" d="M920 211v2l3 1c-4.75 1-4.75 1-7 1l-1 3-5-1c2.18-5.02 4.59-6.29 10-6z"/>
  <path fill="#3D523E" d="M802 858c2.36.0903 4.71.247 7.06.438 1.29.102 2.58.204 3.91.309 1.5.126 1.5.126 3.03.254l1 3-3.31-.0625c-3.63-.123-3.63-.123-6.69 1.06-2.6-1.02-4.01-2.01-6-4l1-1z"/>
  <path fill="#253C27" d="M766 367c2.94 1.31 2.94 1.31 6 3l1 3 3 1c1.03 1.65 2.03 3.32 3 5l2 1v2c-6.2-.689-9.99-7.05-13.9-11.4-1.14-1.55-1.14-1.55-1.14-3.55z"/>
  <path fill="#29402A" d="m665 862 2 1c-1 3-1 3-2.77 4.18-2.49.915-4.34 1.02-6.98.945-.799-.018-1.6-.0361-2.42-.0547-.603-.0232-1.21-.0464-1.83-.0703v-2c3.54-2.12 6.95-2.47 11-3l1-1z"/>
  <path fill="#2B4426" d="M633 421c6.72 2.24 9.21 8.5 12.2 14.4.248.516.495 1.03.75 1.56-2.78-.356-3.8-.771-5.67-2.93-.501-.788-1-1.58-1.52-2.39-.509-.78-1.02-1.56-1.54-2.36-1.17-2.15-1.82-3.93-2.27-6.32h-2v-2z"/>
  <path fill="#29402A" d="M914 609h6c-.695 1.95-.695 1.95-2 4-2.24.609-2.24.609-4.88.75-1.3.0851-1.3.0851-2.62.172-2.17.0676-4.34.0781-6.51.0781v-2l10-1v-2z"/>
  <path fill="#BAE54C" d="M843 524h3l-1 19h-2v-19z"/>
  <path fill="#2D432D" d="m696 192-2 2h-4v2c-3.51 1.6-6.14 2.22-10 2l1-3c5.28-2.46 9.22-3.36 15-3z"/>
  <path fill="#2A412B" d="m651 591 3 2v2l2.25.875c4.91 2.01 4.91 2.01 6.75 3.12l1 3-4 1c-2-3-2-3-3-5l-3-1c-1.69-1.38-1.69-1.38-3-3v-3z"/>
  <path fill="#253C27" d="m730 208-1 3c-5.07 2.04-10.6 2.23-16 2v-1l2.25-.312c2.78-.476 2.78-.476 4.56-2.25 3.36-2.21 6.22-1.64 10.2-1.44z"/>
  <path fill="#C0C9C1" d="M1161 555h2v15h-2c-1.24-10.2-1.24-10.2-1-14l1-1z"/>
  <path fill="#29402A" d="m749 438 3 1 1 3 1-3 2 1-1 8h-2v-2l-3-1-1-7z"/>
  <path fill="#2D432E" d="M691 727c3.89 4.24 4.89 9.39 5.12 15l-.125 2-2-1 1-3h-2c-.534-1.41-1.05-2.83-1.56-4.25-.29-.789-.58-1.58-.879-2.39-.604-2.55-.406-3.91.441-6.36z"/>
  <path fill="#2A412B" d="M925 569h6l1 2 7 2 1 2-1 2c-.552-.286-1.1-.572-1.67-.867-2.49-1.21-5.01-2.24-7.58-3.26-.892-.353-1.78-.706-2.7-1.07-1.01-.398-1.01-.398-2.05-.805v-2z"/>
  <path fill="#2E442F" d="M913 219c1.37.292 1.37.292 2.76.59.699.156 1.4.312 2.12.473v2l2 1v2c-1.77-.425-3.54-.865-5.31-1.31-.986-.244-1.97-.487-2.99-.738-2.7-.95-3.91-1.77-5.7-3.95 2.72-1.36 4.18-.704 7.12-.0625z"/>
  <path fill="#334833" d="m723 344 1 2h2c3.21 3.41 4.75 6.51 6 11h-3c-1.61-2.08-1.61-2.08-3.19-4.81-.53-.893-1.06-1.79-1.61-2.71-1.21-2.48-1.21-2.48-1.21-5.48z"/>
  <path fill="#1F361F" d="M878 337c-1.29 2.88-2.66 4.87-5 7l-1-4c3.75-3 3.75-3 6-3zm-8 6h2l-2 5h-3c1.88-3.88 1.88-3.88 3-5zm-5 5 3 1h-3v-1z"/>
  <path fill="#213923" d="M593 818h5l-1 3c.879 2.66.879 2.66 2 5l-3 1v-2h-2v-2h-2l1-5z"/>
  <path fill="#193119" d="M702 634c2.36.936 4.7 1.93 7 3-2 2-2 2-4.17 2.01-1.28-.16-1.28-.16-2.58-.324-.889-.108-1.78-.217-2.7-.328-2.86-.403-5.71-.836-8.55-1.36v-1c6.75-.125 6.75-.125 9 1v-2l2-1z"/>
  <path fill="#243B25" d="M467 495c1.61 3.21.825 6.63.562 10.1-.0522.754-.104 1.51-.158 2.29-.13 1.86-.266 3.73-.404 5.59-2.25-2.41-2.98-3.6-3.14-6.95.11-1.05.219-2.1.332-3.18.0967-1.05.193-2.11.293-3.2.52-2.68.52-2.68 2.52-4.68z"/>
  <path fill="#2E442F" d="m1118 432 2 1v5h2v5h2v7c-2.75-2.36-3.69-4.41-4.69-7.88-.251-.843-.503-1.69-.762-2.55-.558-2.6-.651-4.92-.551-7.57z"/>
  <path fill="#29402A" d="M1109 410c3 1 3 1 4.19 2.81.812 2.19.812 2.19.812 6.19h2l-1 5c-2.11-2.11-2.93-3.74-4.12-6.44-.353-.782-.706-1.56-1.07-2.37-.805-2.19-.805-2.19-.805-5.19z"/>
  <path fill="#273E28" d="m645 237 4 2c-7.29 4.43-7.29 4.43-12 5v-3l2.31-.875c2.84-1.09 2.84-1.09 5.69-3.12z"/>
  <path fill="#213923" d="m792 874 7 1 1 4h-7v-2l-2-1 1-2z"/>
  <path fill="#243B25" d="M867 644h17v1c-6.07 1.23-11.8 2.28-18 2l1-3z"/>
  <path fill="#223923" d="M686 565c-5.18 3.35-8.85 4.57-15 5v-2h5v-2c6.29-2.43 6.29-2.43 10-1z"/>
  <path fill="#DEF2A4" d="M665 419c3.9 1.43 7.25 3.27 10.8 5.5l2.92 1.84c2.33 1.66 2.33 1.66 3.33 3.66-3.17-.624-5.38-1.72-8.06-3.5-2.39-1.58-4.18-2.58-6.94-3.5-1.19-2.06-1.19-2.06-2-4z"/>
  <path fill="#283F27" d="M782 385c3 0 3 0 4.82 1.68.615.724 1.23 1.45 1.86 2.2.623.719 1.25 1.44 1.89 2.18 1.43 1.95 1.43 1.95 1.43 3.95h3v3h-2v-2l-4-2v-2c-.639-.248-1.28-.495-1.94-.75-2.06-1.25-2.06-1.25-2.69-3.31l-.375-1.94-2-1z"/>
  <path fill="#CBED74" d="m777 381 2 1v2h2v6l3 1-1 5c-3.51-3.84-6-9.75-6-15z"/>
  <path fill="#AEB9AF" d="m895 358 1 2c-1 3-1 3-3 4-1.13 2.02-1.13 2.02-2 4v-2h-3l1-4h2l1-3 3-1z"/>
  <path fill="#223A24" d="M927 849c-2.24 3.36-3.22 3.92-7 5-2.31-.375-2.31-.375-4-1l1-3c3.24-1.32 6.55-1.08 10-1z"/>
  <path fill="#304631" d="M636 628c1.46 2.65 2 3.89 2 7h2v8h-2c-1.47-5.23-2.23-9.58-2-15z"/>
  <path fill="#283F29" d="m716 596 1 3h2l1 9h-2c-2.58-3.88-2.63-6.39-3-11l1-1z"/>
  <path fill="#29402A" d="m1128 468 2 1c.961 2.88 1.11 4.7 1.06 7.69-.00902.808-.018 1.62-.0273 2.45-.0116.615-.0232 1.23-.0352 1.86h-2c-.361-1.98-.714-3.96-1.06-5.94-.197-1.1-.394-2.2-.598-3.34-.112-.898-.224-1.8-.34-2.72l1-1z"/>
  <path fill="#455844" d="M847 178c1.79.141 3.58.288 5.38.438 1.5.122 1.5.122 3.02.246 2.6.316 2.6.316 4.6 1.32v2c-1.79-.141-3.58-.288-5.38-.438-.998-.0812-2-.162-3.02-.246-2.6-.316-2.6-.316-4.6-1.32v-2z"/>
  <path fill="#384D38" d="M790 854c2.01.287 4.01.619 6 1v2h4v2c-3.81 1.46-6.35.623-10-1l-1-3 1-1z"/>
  <path fill="#2E442F" d="M656 697c2 2 2 2 2 5h2v7h-3c-.982-4.05-1.08-7.84-1-12z"/>
  <path fill="#41553F" d="M439 525h1v13l-3 1v-9h2v-5z"/>
  <path fill="#B3BEB4" d="M969 525c0 3 0 3-2 6-2.62.688-2.62.688-5 1l-1-3c2.62-2.15 4.64-3.4 8-4z"/>
  <path fill="#29402A" d="m1131 489 3 1v12h-2l-1-13z"/>
  <path fill="#C7D0C9" d="M962 428h4c-.523 2.76-1.11 5.33-2 8h-2c-2-3-2-3-2-6l2-2z"/>
  <path fill="#2A402A" d="M808 374c3.38 3.11 5.8 5.51 7 10 .125 3.31.125 3.31 0 6h-1c-.17-.626-.34-1.25-.516-1.9-.242-.817-.485-1.63-.734-2.48-.232-.812-.464-1.62-.703-2.46-1.27-2.62-2.37-3.16-5.05-4.16l1-5z"/>
  <path fill="#2F452F" d="m718 323 2 2c-.25 1.75-.25 1.75-1 4l-1.06 3.25c-.309.908-.619 1.82-.938 2.75h-2c-.154-8-.154-8 1-11l2-1zm0 2 1 2z"/>
  <path fill="#586957" d="M827 887c1.61.118 1.61.118 3.25.238 2.75.449 2.75.449 4.75 2.45-2.29.0538-4.58.0927-6.88.125-1.91.0348-1.91.0348-3.87.0703-3.26-.195-3.26-.195-5.26-2.2 2.8-1.4 4.9-.937 8-.688z"/>
  <path fill="#344A35" d="M796 883c1.44-.0542 2.87-.0929 4.31-.125.801-.0232 1.6-.0464 2.43-.0703 2.26.195 2.26.195 5.26 2.2v2l-11-1-1-3z"/>
  <path fill="#283F29" d="m668 848 2 1c.027 1.79.0464 3.58.0625 5.38.0116.998.0232 2 .0352 3.02-.0977 2.6-.0977 2.6-1.1 4.6l-3-1c.553-1.99 1.11-3.97 1.66-5.96.535-2.24.535-2.24-.66-5.04l1-2zm250-274h3c-1.75 4.88-1.75 4.88-4 6-1.05 2.31-2.06 4.64-3 7l-3-1c.681-.835.681-.835 1.38-1.69 1.67-2.38 2.59-4.61 3.62-7.31l2-3z"/>
  <path fill="#4D5F4B" d="M961 540h3v11h-2c-1.2-2.41-1.1-3.95-1.06-6.62.00902-.817.018-1.63.0273-2.48.0116-.626.0232-1.25.0352-1.9z"/>
  <path fill="#243B25" d="M1000 470c-1.07 2.92-1.78 4.78-4 7-3.62.125-3.62.125-7 0l1.94-.812c2.39-1.07 2.39-1.07 3.06-4.19 3-2 3-2 6-2z"/>
  <path fill="#D3DBD5" d="M530 733c3.59 3.33 6.22 6.99 9 11l-1 2-9-10 1-3z"/>
  <path fill="#334934" d="m647 670 3 1c1.18 2.94 1.03 3.9 0 7h2l-1 4v-2l-3-1-1-9z"/>
  <path fill="#213923" d="M852 624v2c-5.61.826-10.4 1.07-16 0v-1c5.38-.917 10.5-1.11 16-1z"/>
  <path fill="#2B412B" d="m942 596 3 2-3 1-1 2c-1.38 1.62-1.38 1.62-3 3h-3v-4l2.38-.875c2.72-.974 2.72-.974 4.62-3.12z"/>
  <path fill="#1C341C" d="m885 328 3 2c-1.24 1.2-2.49 2.39-3.75 3.56-1.04.992-1.04.992-2.11 2-2.14 1.43-2.14 1.43-4.41 1.15-.572-.236-1.14-.472-1.73-.715l2.25-1.75c2.41-1.97 4.59-4.01 6.75-6.25z"/>
  <path fill="#D1DAD4" d="m951 302 4 2v9l-2 1-2-12z"/>
  <path fill="#213923" d="M840 178h7v2l7 1-1 2-12-2-1-3z"/>
  <path fill="#3E523E" d="m880 616 11 1-3 4c-3.8-.542-5.47-2.2-8-5z"/>
  <path fill="#2C432D" d="M666 603c6.52.492 6.52.492 8.94 3.06.351.639.701 1.28 1.06 1.94l-7-1v-2h-3v-2z"/>
  <path fill="#263E28" d="M836 588h3c.0539 1.79.0928 3.58.125 5.38.0232.998.0464 2 .0703 3.02-.195 2.6-.195 2.6-2.2 4.6l-1-13z"/>
  <path fill="#364B37" d="M964 550h2v2h3l1 5c-3.27-.564-4.83-1.5-7-4l1-3z"/>
  <path fill="#C1CBC2" d="M749 425c3.32 4.97 4.38 11 4 17-2.95-2.34-3.93-3.42-4.39-7.23l.141-3.52.109-3.55c.0464-.892.0928-1.78.141-2.7z"/>
  <path fill="#344933" d="M577 373c2.76.523 5.33 1.11 8 2 .688 2.06.688 2.06 1 4l5 1v2l-6-2v-2c-1.14-.402-1.14-.402-2.31-.812-2.56-1.13-3.88-2.1-5.69-4.19z"/>
  <path fill="#2A402A" d="m931 298 1 2c-1.76.977-3.52 1.95-5.27 2.93-1.89 1.08-1.89 1.08-3.73 3.07l-2-4c3.33-2.19 6.04-3.43 10-4z"/>
  <path fill="#193119" d="m820 871 1 2 4-1 1 2c2.02 1.13 2.02 1.13 4 2-1.42.0545-2.83.093-4.25.125-.789.0232-1.58.0464-2.39.0703-2.57-.212-4.15-.909-6.36-2.2h2l1-3z"/>
  <path fill="#384E3A" d="M742 827c3.44 1.53 6.22 3.45 9 6v3h-2v-2l-5-2v-2h-2v-3z"/>
  <path fill="#2E442F" d="M686 791h2v4l3 1v5c-3-1-3-1-4.19-2.75-.921-2.55-.962-4.56-.812-7.25z"/>
  <path fill="#253C26" d="m491 725 3 1 .25 2.38c.478 2.77.478 2.77 2.81 3.94l1.94.688v3c-1.86-.254-1.86-.254-4-1-1.27-1.78-1.27-1.78-2.25-3.94-.335-.71-.67-1.42-1.02-2.15-.734-1.91-.734-1.91-.734-3.91z"/>
  <path fill="#394E39" d="M472 607c2.59 2.59 2.37 4.03 2.62 7.62.0748 1 .15 2.01.227 3.04.049.771.098 1.54.148 2.34-2.25-1.77-2.95-2.58-3.29-5.48.0348-.893.0696-1.79.105-2.71.0271-.901.0541-1.8.082-2.73.0348-.687.0696-1.37.105-2.08z"/>
  <path fill="#3D523E" d="M711 581c3 1 3 1 4 3 .0402 2.33.0432 4.67 0 7l-3-1-1-9z"/>
  <path fill="#2B4327" d="M671 476c3.43 3.76 4.56 8.23 6 13-3-1-3-1-4.69-4.25-1.15-3.29-1.62-5.34-1.31-8.75z"/>
  <path fill="#31492D" d="M672 430c2.26 2.17 4.22 4.45 6.12 6.94.518.669 1.04 1.34 1.57 2.03 1.31 2.04 1.87 3.66 2.3 6.04h-2v-3l-3-1c-1.39-2-1.39-2-2.69-4.44-.437-.803-.874-1.61-1.32-2.43-.988-2.13-.988-2.13-.988-4.13z"/>
  <path fill="#2D432E" d="M599 388c2.96.613 4.38 1.25 7 3l-1 2 5 2v2l-6-3v-2h-3v-2h-2v-2z"/>
  <path fill="#2C422D" d="m931 224-2 2v3l-9-3c4.22-2.11 6.4-2.18 11-2z"/>
  <path fill="#324732" d="M698 219c-3.04 2.02-4.19 2.32-7.69 2.62-.808.0748-1.62.15-2.45.227-.615.049-1.23.098-1.86.148v-2c4.33-2.23 7.28-1.92 12-1z"/>
  <path fill="#213923" d="m904 200 1 1c1.33.362 2.66.697 4 1-5.56.915-9.68 1.32-15-1 3.57-2.34 5.93-1.99 10-1z"/>
  <path fill="#BEC8BF" d="M818 859c6.75-.125 6.75-.125 9 1v2h-9v-3z"/>
  <path fill="#334934" d="M772 849c8.35.35 8.35.35 11.1 3.06.309.639.619 1.28.938 1.94-6.15-.586-6.15-.586-8-1l-1-2-3-2z"/>
  <path fill="#263D27" d="m662 841 6 5-1 3-5-2v-6z"/>
  <path fill="#BCC6BD" d="M731 647c7.75-.125 7.75-.125 10 1v2h-9l-1-3z"/>
  <path fill="#6B7A6B" d="M829 622h8v3h-9l1-3z"/>
  <path fill="#253C26" d="M728 545c3 3.62 3 3.62 3 7h-2l-1 2c-1.56-1.81-1.56-1.81-3-4 1-3 1-3 3-5z"/>
  <path fill="#DFF2A9" d="M795 499c2 2 2 2 2.19 5.31-.154 3.03-.474 5.74-1.19 8.69l-1-3-2-1 2-10z"/>
  <path fill="#2C422D" d="M744 486h3c3 6.62 3 6.62 3 10h-2c-.672-1.29-1.34-2.58-2-3.88-.371-.719-.742-1.44-1.12-2.18-.875-1.95-.875-1.95-.875-3.95z"/>
  <path fill="#263E28" d="m944 323 1 3c-1.26 2.05-2.6 4.04-4 6-.694 1.32-1.38 2.65-2 4-.688-1.62-.688-1.62-1-4 1.48-3.62 3.02-6.44 6-9z"/>
  <path fill="#2F452F" d="M705 187h10l-1 3h-10l1-3z"/>
</svg>