<svg
                width="25"
                height="25"
                viewBox="0 0 25 25"
                fill="none"
                xmlns="http://www.w3.org/2000/svg"
              >
                <path
                  d="M5.10941 20.4395C5.57329 20.904 6.12438 21.2723 6.73103 21.5232C7.33768 21.7741 7.98793 21.9026 8.64441 21.9015C9.30104 21.9026 9.95143 21.774 10.5582 21.5232C11.165 21.2723 11.7163 20.904 12.1804 20.4395L15.0084 17.6105L13.5944 16.1965L10.7664 19.0255C10.2029 19.5865 9.44008 19.9014 8.64491 19.9014C7.84974 19.9014 7.08694 19.5865 6.52341 19.0255C5.96192 18.4622 5.64662 17.6993 5.64662 16.904C5.64662 16.1086 5.96192 15.3457 6.52341 14.7825L9.35241 11.9545L7.93841 10.5405L5.10941 13.3685C4.17322 14.3069 3.64746 15.5784 3.64746 16.904C3.64746 18.2295 4.17322 19.501 5.10941 20.4395ZM20.6654 11.9545C21.6011 11.0157 22.1265 9.74438 22.1265 8.41896C22.1265 7.09354 21.6011 5.82218 20.6654 4.88346C19.727 3.94727 18.4555 3.42151 17.1299 3.42151C15.8043 3.42151 14.5329 3.94727 13.5944 4.88346L10.7664 7.71246L12.1804 9.12646L15.0084 6.29746C15.5719 5.73645 16.3347 5.42149 17.1299 5.42149C17.9251 5.42149 18.6879 5.73645 19.2514 6.29746C19.8129 6.86073 20.1282 7.62363 20.1282 8.41896C20.1282 9.21429 19.8129 9.97719 19.2514 10.5405L16.4224 13.3685L17.8364 14.7825L20.6654 11.9545ZM9.3514 17.6115L7.9364 16.1975L16.4234 7.71155L17.8374 9.12655L9.3514 17.6115Z"
                  fill="#343829"
                />
                <path
                  d="M5.10941 20.4395C5.57329 20.904 6.12438 21.2723 6.73103 21.5232C7.33768 21.7741 7.98793 21.9026 8.64441 21.9015C9.30104 21.9026 9.95143 21.774 10.5582 21.5232C11.165 21.2723 11.7163 20.904 12.1804 20.4395L15.0084 17.6105L13.5944 16.1965L10.7664 19.0255C10.2029 19.5865 9.44008 19.9014 8.64491 19.9014C7.84974 19.9014 7.08694 19.5865 6.52341 19.0255C5.96192 18.4622 5.64662 17.6993 5.64662 16.904C5.64662 16.1086 5.96192 15.3457 6.52341 14.7825L9.35241 11.9545L7.93841 10.5405L5.10941 13.3685C4.17322 14.3069 3.64746 15.5784 3.64746 16.904C3.64746 18.2295 4.17322 19.501 5.10941 20.4395ZM20.6654 11.9545C21.6011 11.0157 22.1265 9.74438 22.1265 8.41896C22.1265 7.09354 21.6011 5.82218 20.6654 4.88346C19.727 3.94727 18.4555 3.42151 17.1299 3.42151C15.8043 3.42151 14.5329 3.94727 13.5944 4.88346L10.7664 7.71246L12.1804 9.12646L15.0084 6.29746C15.5719 5.73645 16.3347 5.42149 17.1299 5.42149C17.9251 5.42149 18.6879 5.73645 19.2514 6.29746C19.8129 6.86073 20.1282 7.62363 20.1282 8.41896C20.1282 9.21429 19.8129 9.97719 19.2514 10.5405L16.4224 13.3685L17.8364 14.7825L20.6654 11.9545ZM9.3514 17.6115L7.9364 16.1975L16.4234 7.71155L17.8374 9.12655L9.3514 17.6115Z"
                  fill="#343829"
                />
              </svg>