<svg width="15" height="20" viewBox="0 0 15 20" fill="none" xmlns="http://www.w3.org/2000/svg">
    <path d="M14.4639 0.114012C14.3024 0.0290774 14.1208 -0.00995817 13.9386 0.00114925C13.7565 0.0122567 13.5809 0.0730819 13.4309 0.177012L0.43093 9.17701C0.298489 9.26944 0.190327 9.39249 0.115641 9.53569C0.0409545 9.67889 0.00195312 9.83801 0.00195312 9.99951C0.00195312 10.161 0.0409545 10.3201 0.115641 10.4633C0.190327 10.6065 0.298489 10.7296 0.43093 10.822L13.4309 19.822C13.581 19.9258 13.7565 19.9866 13.9386 19.9978C14.1207 20.009 14.3024 19.9701 14.464 19.8855C14.6256 19.8008 14.761 19.6735 14.8554 19.5175C14.9499 19.3614 14.9999 19.1824 14.9999 19V1.00001C15 0.817475 14.95 0.638411 14.8555 0.48223C14.7611 0.326049 14.6256 0.198709 14.4639 0.114012ZM12.9999 17.091L2.75693 10L12.9999 2.90901V17.091Z" fill="#343829"/>
    </svg>
    