<svg width="25" height="25" viewBox="0 0 25 25" fill="none" xmlns="http://www.w3.org/2000/svg">
    <path fill-rule="evenodd" clip-rule="evenodd" d="M5.3877 3.90417C4.55927 3.90417 3.8877 4.57574 3.8877 5.40417V20.4042C3.8877 21.2326 4.55927 21.9042 5.3877 21.9042H20.3877C21.2161 21.9042 21.8877 21.2326 21.8877 20.4042V5.40417C21.8877 4.57574 21.2161 3.90417 20.3877 3.90417H5.3877ZM9.40845 7.90689C9.41408 8.86314 8.69831 9.45236 7.84893 9.44814C7.04877 9.44392 6.35127 8.80689 6.35549 7.9083C6.35971 7.06314 7.02768 6.38392 7.89534 6.40361C8.77565 6.42331 9.41408 7.06877 9.40845 7.90689ZM13.1674 10.6659H10.6474H10.646V19.2258H13.3094V19.0261C13.3094 18.6462 13.3091 18.2662 13.3088 17.8861C13.308 16.8723 13.3071 15.8574 13.3123 14.8439C13.3137 14.5978 13.3249 14.3419 13.3882 14.107C13.6258 13.2295 14.4148 12.6628 15.2951 12.8021C15.8604 12.8906 16.2344 13.2183 16.3919 13.7513C16.489 14.0845 16.5326 14.4431 16.5368 14.7905C16.5482 15.8381 16.5466 16.8857 16.545 17.9334C16.5444 18.3032 16.5438 18.6732 16.5438 19.043V19.2244H19.2157V19.0191C19.2157 18.5671 19.2155 18.1152 19.2152 17.6633C19.2147 16.5338 19.2141 15.4043 19.2171 14.2744C19.2185 13.7639 19.1637 13.2605 19.0385 12.7669C18.8515 12.0328 18.4648 11.4253 17.8362 10.9866C17.3904 10.6744 16.901 10.4733 16.354 10.4508C16.2917 10.4482 16.2289 10.4448 16.1658 10.4414C15.8861 10.4263 15.6018 10.4109 15.3344 10.4648C14.5694 10.6181 13.8973 10.9683 13.3896 11.5856C13.3306 11.6564 13.2729 11.7283 13.1868 11.8356L13.1674 11.8599V10.6659ZM6.56934 19.2286H9.22012V10.6715H6.56934V19.2286Z" fill="#343829"/>
    </svg>
    