<?xml version="1.0" standalone="no"?>
<!DOCTYPE svg PUBLIC "-//W3C//DTD SVG 20010904//EN"
 "http://www.w3.org/TR/2001/REC-SVG-20010904/DTD/svg10.dtd">
<svg version="1.0" xmlns="http://www.w3.org/2000/svg"
 width="381.000000pt" height="381.000000pt" viewBox="0 0 381.000000 381.000000"
 preserveAspectRatio="xMidYMid meet">
<metadata>
Created by potrace 1.14, written by Peter Selinger 2001-2017
</metadata>
<g transform="translate(0.000000,381.000000) scale(0.100000,-0.100000)"
fill="#000000" stroke="none">
<path d="M1675 3220 c-648 -92 -1135 -649 -1135 -1299 0 -483 273 -940 693
-1157 89 -46 122 -52 140 -23 20 32 0 64 -55 90 -162 74 -368 254 -470 409
-135 206 -194 386 -205 626 -21 444 192 843 578 1086 338 213 804 236 1161 57
337 -168 566 -464 660 -849 9 -37 13 -119 12 -250 0 -177 -3 -204 -26 -290
-59 -220 -160 -394 -322 -556 -208 -207 -452 -324 -677 -324 -238 0 -401 93
-493 282 -20 40 -65 174 -101 298 -36 124 -68 232 -71 242 -4 15 1 14 57 -3
227 -71 631 -71 857 0 34 10 62 16 62 12 0 -3 -45 -159 -100 -346 -92 -314
-98 -342 -84 -362 16 -25 55 -31 72 -10 13 16 262 862 262 890 0 33 -35 83
-75 109 -19 13 -35 27 -35 31 0 10 73 78 78 72 2 -2 -1 -12 -7 -23 -18 -33
-13 -70 9 -82 38 -20 57 -2 115 108 31 59 63 114 71 123 20 22 17 53 -7 74
-25 24 -48 16 -155 -51 -94 -59 -222 -185 -285 -280 -59 -88 -64 -105 -41
-134 27 -33 66 -21 92 28 10 20 28 48 39 61 l19 25 41 -27 c48 -32 51 -48 13
-76 -100 -71 -413 -115 -660 -91 -241 22 -426 92 -383 144 14 17 118 64 159
72 33 7 34 4 62 -106 15 -58 26 -70 61 -70 46 0 53 27 29 119 -65 256 -188
498 -332 656 -69 76 -64 78 52 23 85 -41 199 -155 258 -260 52 -93 102 -229
132 -363 21 -92 26 -103 63 -137 41 -39 77 -48 94 -25 6 6 13 64 17 127 15
278 84 511 206 690 21 30 47 64 59 74 20 18 20 17 -3 -40 -47 -116 -43 -164
13 -164 35 0 46 12 61 70 15 59 80 197 118 252 43 62 47 83 23 107 -28 28 -36
27 -111 -16 -137 -81 -265 -233 -343 -408 -41 -94 -85 -238 -94 -312 -3 -29
-9 -50 -13 -48 -4 3 -11 33 -14 67 -10 86 -62 339 -85 415 -19 61 -19 62 0 50
10 -8 37 -34 60 -60 51 -59 96 -63 113 -11 14 46 -122 181 -238 235 -70 33
-98 32 -117 -2 -9 -17 -6 -28 15 -60 36 -54 63 -126 92 -243 13 -56 24 -105
24 -110 0 -4 -19 18 -43 50 -97 132 -248 235 -385 263 -85 18 -176 14 -202 -7
-30 -25 -21 -61 21 -86 91 -54 236 -225 311 -366 52 -99 90 -192 81 -200 -4
-4 -36 -17 -70 -28 -114 -38 -194 -115 -180 -176 13 -57 181 -619 203 -677
107 -283 329 -422 649 -406 253 13 491 131 711 351 257 257 384 563 384 926 0
619 -421 1142 -1030 1281 -97 22 -357 33 -455 19z"/>
<path d="M2571 2510 c-276 -131 -497 -400 -568 -692 -31 -125 -25 -158 26
-158 37 0 46 12 60 89 37 193 156 398 303 524 61 52 76 59 54 25 -8 -13 -24
-47 -35 -76 -23 -57 -18 -85 18 -97 34 -10 49 6 95 98 24 51 67 122 95 159 65
87 70 99 61 124 -13 33 -44 34 -109 4z"/>
</g>
</svg>
